<?xml version="1.0" standalone="no"?>
<!DOCTYPE svg PUBLIC "-//W3C//DTD SVG 20010904//EN"
 "http://www.w3.org/TR/2001/REC-SVG-20010904/DTD/svg10.dtd">
<svg version="1.0" xmlns="http://www.w3.org/2000/svg"
 width="700.000000pt" height="700.000000pt" viewBox="0 0 700.000000 700.000000"
 preserveAspectRatio="xMidYMid meet">
<metadata>
Created by potrace 1.14, written by Peter Selinger 2001-2017
</metadata>
<g transform="translate(0.000000,700.000000) scale(0.100000,-0.100000)"
fill="#000000" stroke="none">
<path d="M915 5693 c-155 -36 -307 -151 -365 -276 -113 -242 -68 -501 119
-688 90 -89 128 -109 465 -240 394 -154 590 -288 798 -549 33 -41 67 -84 77
-95 9 -11 26 -34 38 -50 l21 -31 -108 -135 c-119 -149 -200 -227 -336 -325
-86 -62 -335 -194 -365 -194 -8 0 -19 -4 -24 -9 -6 -4 -73 -32 -150 -61 -248
-93 -320 -132 -405 -219 -83 -84 -122 -149 -156 -258 -30 -96 -28 -258 5 -347
61 -170 178 -282 356 -342 148 -50 362 -33 499 40 203 108 327 293 329 491 1
145 -47 276 -138 375 -39 42 -55 68 -53 83 5 37 74 82 398 255 139 75 334 194
433 265 63 46 69 48 90 34 12 -8 121 -85 242 -171 121 -85 228 -161 238 -168
11 -7 44 -31 75 -54 389 -279 969 -683 1021 -709 74 -38 193 -79 261 -90 87
-15 223 -8 306 14 72 20 224 95 224 111 0 7 -58 50 -370 279 -91 66 -176 129
-189 138 -51 38 -537 395 -556 409 -35 25 -266 194 -400 294 -71 53 -192 141
-267 195 -76 55 -138 102 -138 105 0 3 35 30 78 60 42 30 127 91 187 135 283
209 628 461 648 475 31 22 589 429 607 443 8 7 37 28 65 47 27 19 56 41 65 47
8 7 76 57 150 111 74 54 135 103 134 108 -1 16 -123 81 -197 105 -61 20 -92
24 -207 24 -113 0 -147 -4 -209 -23 -157 -50 -216 -84 -591 -350 -47 -34 -105
-75 -130 -92 -65 -45 -589 -414 -625 -440 -16 -12 -121 -86 -233 -165 l-204
-144 -26 17 c-15 9 -61 40 -102 68 -109 75 -355 220 -505 299 -164 86 -249
140 -275 172 -18 23 -18 28 -5 52 8 14 33 44 55 66 71 68 130 224 132 344 1
89 -11 140 -54 230 -77 162 -227 282 -412 329 -92 24 -233 26 -321 5z m282
-253 c210 -74 300 -322 187 -515 -89 -153 -301 -192 -459 -84 -146 99 -218
273 -169 408 64 178 249 259 441 191z m63 -2688 c162 -70 233 -285 151 -457
-49 -103 -121 -160 -243 -191 -296 -76 -517 209 -364 470 96 164 302 244 456
178z"/>
<path d="M4597 4882 c-16 -3 -17 -49 -17 -568 l0 -564 145 0 144 0 -2 300 c-1
212 1 296 9 287 5 -7 36 -68 67 -137 31 -69 89 -197 130 -285 l74 -160 81 -3
c52 -2 82 1 82 8 0 5 27 67 60 136 33 69 60 127 60 129 0 2 24 54 53 116 30
63 62 133 72 157 10 23 21 42 24 42 3 0 6 -133 5 -295 l-1 -295 144 0 143 0 0
565 0 565 -32 1 c-135 4 -270 1 -278 -7 -4 -5 -52 -103 -105 -219 -54 -115
-118 -253 -142 -305 -25 -52 -54 -115 -65 -140 l-20 -45 -28 55 c-15 30 -89
190 -165 355 -76 165 -139 301 -141 303 -3 5 -276 8 -297 4z"/>
<path d="M4530 3542 c-22 -8 -8 -34 25 -47 19 -8 40 -25 47 -37 9 -17 12 -111
12 -359 1 -303 -1 -338 -17 -362 -10 -15 -24 -27 -32 -27 -18 0 -47 -29 -42
-44 2 -7 33 -11 78 -12 256 -5 458 -4 484 1 144 28 218 74 255 158 64 145 -22
291 -185 314 -56 7 -65 18 -23 27 43 9 94 42 124 82 19 25 28 50 31 94 5 53 2
65 -21 100 -14 22 -43 51 -64 65 -72 47 -125 54 -404 52 -142 -1 -262 -3 -268
-5z m457 -67 c52 -34 77 -140 53 -225 -12 -42 -59 -77 -115 -85 -22 -3 -46 -8
-52 -10 -14 -5 -18 -44 -5 -46 4 0 29 -2 56 -4 105 -9 149 -40 170 -121 27
-108 -6 -221 -77 -260 -45 -25 -160 -33 -174 -12 -4 7 -8 181 -9 387 0 303 2
376 13 387 18 18 106 11 140 -11z"/>
</g>
</svg>
