<svg xmlns="http://www.w3.org/2000/svg" xmlns:xlink="http://www.w3.org/1999/xlink" width="400" zoomAndPan="magnify" viewBox="0 0 300 299.999988" height="400" preserveAspectRatio="xMidYMid meet" version="1.0"><defs><g/><clipPath id="id1"><path d="M 0 98.5625 L 90.386719 98.5625 L 90.386719 180 L 0 180 Z M 0 98.5625 " clip-rule="nonzero"/></clipPath><clipPath id="id2"><path d="M 0 99 L 90.386719 99 L 90.386719 180.222656 L 0 180.222656 Z M 0 99 " clip-rule="nonzero"/></clipPath></defs><path fill="#000000" d="M 40.421875 133.074219 C 29.089844 124.835938 20.804688 123.058594 21.597656 120.269531 C 22.21875 118.089844 24.082031 119.136719 25.394531 113.375 C 26.65625 107.84375 22.125 102.191406 16.652344 101.015625 C 11.292969 99.453125 4.554688 101.988281 2.890625 107.660156 C 0.863281 113.273438 4.160156 119.960938 9.738281 121.960938 C 16.117188 124.851562 24.542969 126.335938 31.773438 135.6875 L 37.324219 142.867188 L 72.332031 167.707031 C 76.855469 170.484375 82.878906 172.152344 88.609375 168.550781 Z M 19.292969 106.421875 C 24.054688 111.207031 21.148438 119.671875 14.789062 119.65625 C 8.9375 119.996094 3.609375 112.871094 6.949219 107.574219 C 9.292969 103.117188 16.03125 103.148438 19.292969 106.421875 Z M 19.292969 106.421875 " fill-opacity="1" fill-rule="nonzero"/><g clip-path="url(#id1)"><path stroke-linecap="butt" transform="matrix(0.000000000000000013, -0.205281, 0.204912, 0.000000000000000013, -40.612771, 235.926206)" fill="none" stroke-linejoin="miter" d="M 501.031219 395.459893 C 541.163025 340.158067 549.821144 299.725399 563.40773 303.595192 C 574.025818 306.626213 568.926091 315.719274 596.993619 322.124449 C 623.938445 328.281805 651.473165 306.1687 657.200843 279.461407 C 664.812376 253.306942 652.462664 220.42323 624.8328 212.302382 C 597.488368 202.408674 564.911008 218.497864 555.168246 245.719859 C 541.08691 276.849773 533.855954 317.96871 488.30093 353.254363 L 453.325937 380.342917 L 332.321594 551.185715 C 318.792094 573.260694 310.666783 602.655873 328.211366 630.621325 Z M 630.86494 292.34801 C 607.55462 315.585833 566.319141 301.402945 566.395257 270.368346 C 564.739748 241.81194 599.448338 215.809978 625.251434 232.108862 C 646.963332 243.546675 646.811101 276.430387 630.86494 292.34801 Z M 630.86494 292.34801 " stroke="#000000" stroke-width="7.541" stroke-opacity="1" stroke-miterlimit="4"/></g><path fill="#000000" d="M 40.730469 145.761719 C 29.378906 153.96875 21.09375 155.730469 21.878906 158.523438 C 22.496094 160.703125 24.359375 159.660156 25.660156 165.425781 C 26.910156 170.960938 22.363281 176.601562 16.890625 177.761719 C 11.527344 179.316406 4.792969 176.765625 3.144531 171.089844 C 1.128906 165.472656 4.441406 158.789062 10.023438 156.804688 C 16.410156 153.925781 24.835938 152.460938 32.089844 143.125 L 37.65625 135.960938 L 72.71875 111.195312 C 77.25 108.429688 83.273438 106.773438 89 110.390625 Z M 19.542969 172.363281 C 24.316406 167.589844 21.429688 159.121094 15.070312 159.121094 C 9.21875 158.769531 3.875 165.878906 7.203125 171.183594 C 9.535156 175.648438 16.273438 175.628906 19.542969 172.363281 Z M 19.542969 172.363281 " fill-opacity="1" fill-rule="nonzero"/><g clip-path="url(#id2)"><path stroke-linecap="butt" transform="matrix(0.000000000000000013, -0.205281, 0.204912, 0.000000000000000013, -40.612771, 235.926206)" fill="none" stroke-linejoin="miter" d="M 439.225572 396.965871 C 399.245996 341.568731 390.663993 301.136062 377.058378 304.96773 C 366.440289 307.979687 371.520988 317.072748 343.434432 323.420734 C 316.470577 329.520901 288.992943 307.331544 283.34138 280.624251 C 275.767905 254.450723 288.193732 221.586074 315.842625 213.541479 C 343.206086 203.70496 375.764417 219.870402 385.431064 247.11146 C 399.455313 278.2795 406.591125 319.398437 452.070034 354.798468 L 486.968912 381.963273 L 607.611707 553.072954 C 621.08412 575.186059 629.152345 604.581238 611.531646 632.527628 Z M 309.639226 293.568043 C 332.892459 316.863055 374.146966 302.775482 374.146966 271.740883 C 375.859561 243.184477 341.227087 217.106264 315.385933 233.347958 C 293.635978 244.728582 293.731122 277.612294 309.639226 293.568043 Z M 309.639226 293.568043 " stroke="#000000" stroke-width="7.541" stroke-opacity="1" stroke-miterlimit="4"/></g><g fill="#000000" fill-opacity="1"><g transform="translate(84.102392, 143.101089)"><g><path d="M 22.222656 -23.148438 L 15.355469 -8.410156 L 8.527344 -23.148438 L 2.121094 -23.148438 L 2.121094 0 L 8.023438 0 L 8.023438 -12.460938 L 13.773438 0 L 16.9375 0 L 22.683594 -12.382812 L 22.683594 0 L 28.585938 0 L 28.585938 -23.148438 Z M 22.222656 -23.148438 "/></g></g></g><g fill="#000000" fill-opacity="1"><g transform="translate(114.804368, 143.101089)"><g><path d="M 13.195312 0.308594 C 19.753906 0.308594 25.074219 -5.015625 25.074219 -11.574219 C 25.074219 -18.132812 19.753906 -23.457031 13.195312 -23.457031 C 6.597656 -23.457031 1.3125 -18.132812 1.3125 -11.574219 C 1.3125 -5.015625 6.597656 0.308594 13.195312 0.308594 Z M 13.195312 -5.476562 C 9.683594 -5.476562 7.058594 -8.0625 7.058594 -11.574219 C 7.058594 -15.085938 9.683594 -17.667969 13.195312 -17.667969 C 16.664062 -17.667969 19.289062 -15.085938 19.289062 -11.574219 C 19.289062 -8.0625 16.664062 -5.476562 13.195312 -5.476562 Z M 13.195312 -5.476562 "/></g></g></g><g fill="#000000" fill-opacity="1"><g transform="translate(141.1479, 143.101089)"><g><path d="M 11.921875 0.308594 C 17.476562 0.308594 21.835938 -3.046875 21.835938 -7.367188 L 21.835938 -23.148438 L 15.933594 -23.148438 L 15.933594 -8.488281 C 15.933594 -6.441406 14.15625 -4.820312 11.921875 -4.820312 C 9.683594 -4.820312 7.910156 -6.441406 7.910156 -8.488281 L 7.910156 -23.148438 L 2.007812 -23.148438 L 2.007812 -7.367188 C 2.007812 -3.046875 6.367188 0.308594 11.921875 0.308594 Z M 11.921875 0.308594 "/></g></g></g><g fill="#000000" fill-opacity="1"><g transform="translate(164.984361, 143.101089)"><g><path d="M 9.683594 0.308594 C 14.121094 0.308594 17.9375 -2.277344 17.9375 -6.710938 C 17.9375 -15.507812 7.445312 -13.308594 7.445312 -16.820312 C 7.445312 -17.824219 8.21875 -18.285156 9.144531 -18.285156 C 10.300781 -18.285156 11.574219 -17.589844 12.808594 -16.28125 L 16.664062 -20.023438 C 14.851562 -22.144531 12.113281 -23.457031 9.21875 -23.457031 C 5.554688 -23.457031 1.503906 -21.332031 1.503906 -16.394531 C 1.503906 -8.371094 12.035156 -10.300781 12.035156 -6.789062 C 12.035156 -5.863281 11.265625 -5.207031 9.761719 -5.207031 C 7.753906 -5.207031 6.132812 -6.289062 5.324219 -8.023438 L 0.5 -5.015625 C 2.042969 -2.082031 5.441406 0.308594 9.683594 0.308594 Z M 9.683594 0.308594 "/></g></g></g><g fill="#000000" fill-opacity="1"><g transform="translate(183.768111, 143.101089)"><g><path d="M 16.859375 -23.148438 L -0.347656 -23.148438 L -0.347656 -18.015625 L 5.324219 -18.015625 L 5.324219 0 L 11.1875 0 L 11.1875 -18.015625 L 16.859375 -18.015625 Z M 16.859375 -23.148438 "/></g></g></g><g fill="#000000" fill-opacity="1"><g transform="translate(200.27621, 143.101089)"><g><path d="M 16.320312 0 L 22.644531 0 L 14.273438 -23.148438 L 7.675781 -23.148438 L -0.695312 0 L 5.671875 0 L 6.945312 -4.050781 L 15.046875 -4.050781 Z M 8.449219 -8.835938 L 10.996094 -17.011719 L 13.578125 -8.835938 Z M 8.449219 -8.835938 "/></g></g></g><g fill="#000000" fill-opacity="1"><g transform="translate(222.261298, 143.101089)"><g><path d="M 13.195312 0.308594 C 17.785156 0.308594 21.796875 -2.316406 23.765625 -6.171875 L 18.671875 -8.757812 C 17.667969 -6.75 15.664062 -5.476562 13.195312 -5.476562 C 9.683594 -5.476562 7.058594 -8.0625 7.058594 -11.574219 C 7.058594 -15.085938 9.683594 -17.667969 13.195312 -17.667969 C 15.664062 -17.667969 17.667969 -16.394531 18.671875 -14.390625 L 23.765625 -16.972656 C 21.796875 -20.832031 17.785156 -23.457031 13.195312 -23.457031 C 6.597656 -23.457031 1.3125 -18.132812 1.3125 -11.574219 C 1.3125 -5.015625 6.597656 0.308594 13.195312 0.308594 Z M 13.195312 0.308594 "/></g></g></g><g fill="#000000" fill-opacity="1"><g transform="translate(246.946306, 143.101089)"><g><path d="M 16.355469 -23.148438 L 16.355469 -14.15625 L 8.023438 -14.15625 L 8.023438 -23.148438 L 2.121094 -23.148438 L 2.121094 0 L 8.023438 0 L 8.023438 -9.027344 L 16.355469 -9.027344 L 16.355469 0 L 22.257812 0 L 22.257812 -23.148438 Z M 16.355469 -23.148438 "/></g></g></g><g fill="#000000" fill-opacity="1"><g transform="translate(271.361315, 143.101089)"><g><path d="M 16.664062 -18.015625 L 16.664062 -23.148438 L 2.316406 -23.148438 L 2.316406 0 L 16.664062 0 L 16.664062 -5.132812 L 8.21875 -5.132812 L 8.21875 -9.027344 L 15.355469 -9.027344 L 15.355469 -14.121094 L 8.21875 -14.121094 L 8.21875 -18.015625 Z M 16.664062 -18.015625 "/></g></g></g><g fill="#000000" fill-opacity="1"><g transform="translate(90.433369, 165.541968)"><g><path d="M 2.644531 0 C 4.824219 0.0273438 7.316406 0.179688 9.804688 0.179688 C 15.277344 0.179688 18.15625 -1.765625 18.15625 -5.238281 C 18.15625 -8.273438 15.640625 -9.753906 11.957031 -9.933594 C 15.097656 -10.269531 16.679688 -11.699219 16.679688 -14.238281 C 16.679688 -16.339844 14.734375 -18.363281 9.699219 -18.363281 C 8.117188 -18.363281 4.566406 -18.183594 2.621094 -18.15625 C 2.179688 -18.15625 1.425781 -18.207031 1.011719 -18.207031 C 0.960938 -18.207031 0.648438 -17.40625 1.503906 -17.171875 C 2.28125 -16.988281 2.851562 -16.808594 2.851562 -14.734375 L 2.851562 -3.421875 C 2.851562 -1.347656 2.28125 -1.167969 1.503906 -0.984375 C 0.648438 -0.753906 0.960938 0.0507812 1.011719 0.0507812 C 1.425781 0.0507812 2.179688 0 2.644531 0 Z M 8.25 -10.269531 C 7.625 -10.0625 7.988281 -9.234375 8.066406 -9.234375 L 8.949219 -9.207031 C 11.828125 -9.183594 12.890625 -7.886719 12.890625 -5.058594 C 12.890625 -2.152344 11.179688 -0.90625 9.183594 -0.90625 L 8.300781 -0.90625 C 7.496094 -0.90625 7.339844 -1.140625 7.339844 -1.996094 L 7.339844 -16.183594 C 7.339844 -16.964844 7.417969 -17.25 8.09375 -17.25 L 9.128906 -17.222656 C 10.425781 -17.195312 11.777344 -16.183594 11.777344 -13.644531 C 11.777344 -11.386719 10.84375 -10.660156 9.050781 -10.347656 Z M 8.25 -10.269531 "/></g></g></g><g fill="#000000" fill-opacity="1"><g transform="translate(109.367727, 165.541968)"><g><path d="M 18.832031 -0.984375 C 18.339844 -1.167969 17.871094 -1.347656 17.09375 -3.242188 L 11.722656 -16.316406 C 11.050781 -18 10.738281 -18.15625 8.6875 -18.15625 L 5.914062 -18.15625 C 5.757812 -18.15625 5.5 -17.480469 6.199219 -17.300781 C 6.535156 -17.195312 6.667969 -17.144531 6.875 -16.703125 L 6.925781 -16.574219 C 7.105469 -16.160156 7.238281 -15.40625 7.003906 -14.863281 L 2.308594 -3.242188 C 1.53125 -1.347656 1.0625 -1.167969 0.519531 -0.984375 C -0.078125 -0.753906 0.15625 0.078125 0.207031 0.078125 C 0.492188 0.0507812 1.011719 0 1.324219 0 L 2.957031 0 C 3.554688 0 4.589844 0.0507812 5.109375 0.078125 C 5.1875 0.078125 5.601562 -0.753906 4.433594 -0.984375 C 3.421875 -1.167969 2.699219 -1.347656 3.476562 -3.269531 L 3.863281 -4.226562 L 3.863281 -4.175781 C 3.996094 -4.410156 4.125 -4.460938 4.410156 -4.460938 C 6.875 -4.460938 8.921875 -4.488281 11.359375 -4.460938 C 11.59375 -4.460938 11.777344 -4.460938 11.929688 -4.28125 L 12.347656 -3.242188 C 13.152344 -1.347656 12.527344 -1.167969 11.59375 -0.984375 C 10.558594 -0.753906 10.917969 0.078125 10.996094 0.078125 C 11.464844 0.0507812 12.371094 0 12.941406 0 L 18.078125 0 C 18.363281 0 18.882812 0.0507812 19.140625 0.078125 C 19.167969 0.078125 19.402344 -0.753906 18.832031 -0.984375 Z M 10.996094 -5.601562 C 8.792969 -5.550781 7.054688 -5.550781 4.851562 -5.578125 C 4.617188 -5.578125 4.511719 -5.808594 4.617188 -6.042969 L 4.589844 -6.042969 L 7.910156 -14.160156 L 11.257812 -5.941406 C 11.28125 -5.785156 11.179688 -5.601562 10.996094 -5.601562 Z M 10.996094 -5.601562 "/></g></g></g><g fill="#000000" fill-opacity="1"><g transform="translate(128.691142, 165.541968)"><g><path d="M 14.5 -7.316406 C 14.371094 -7.730469 14.238281 -7.910156 13.800781 -7.910156 C 12.96875 -7.9375 12.191406 -7.964844 11.4375 -8.015625 L 11.542969 -8.117188 C 15.613281 -8.324219 17.949219 -10.039062 17.949219 -13.152344 C 17.949219 -16.625 15.277344 -18.339844 9.804688 -18.339844 C 7.316406 -18.339844 4.824219 -18.183594 2.644531 -18.15625 C 2.179688 -18.15625 1.425781 -18.207031 1.011719 -18.207031 C 0.960938 -18.207031 0.648438 -17.40625 1.503906 -17.171875 C 2.28125 -16.988281 2.851562 -16.808594 2.851562 -14.734375 L 2.851562 -3.421875 C 2.851562 -1.347656 2.28125 -1.167969 1.503906 -0.984375 C 0.648438 -0.753906 0.960938 0.078125 1.039062 0.078125 C 1.425781 0.0507812 2.179688 0 2.644531 0 L 7.574219 0 C 8.015625 0 8.792969 0.0507812 9.183594 0.078125 C 9.234375 0.078125 9.546875 -0.753906 8.6875 -0.984375 C 7.910156 -1.167969 7.339844 -1.347656 7.339844 -3.421875 L 7.339844 -16.261719 C 7.339844 -17.042969 7.546875 -17.25 8.222656 -17.25 L 9.105469 -17.25 C 11.308594 -17.222656 12.863281 -15.925781 12.863281 -12.996094 C 12.863281 -10.402344 11.855469 -9.105469 9.234375 -8.84375 L 8.378906 -8.820312 C 7.964844 -8.765625 7.910156 -8.457031 8.066406 -8.300781 L 8.6875 -8.171875 C 11.074219 -3.191406 14.835938 0.621094 18.441406 1.246094 C 19.480469 1.296875 19.816406 0.855469 19.921875 0.441406 C 18.675781 -0.492188 16.289062 -2.414062 14.5 -7.316406 Z M 14.5 -7.316406 "/></g></g></g><g fill="#000000" fill-opacity="1"><g transform="translate(148.377684, 165.541968)"><g><path d="M 2.644531 0 C 4.824219 0.0273438 7.316406 0.179688 9.804688 0.179688 C 15.277344 0.179688 18.15625 -1.765625 18.15625 -5.238281 C 18.15625 -8.273438 15.640625 -9.753906 11.957031 -9.933594 C 15.097656 -10.269531 16.679688 -11.699219 16.679688 -14.238281 C 16.679688 -16.339844 14.734375 -18.363281 9.699219 -18.363281 C 8.117188 -18.363281 4.566406 -18.183594 2.621094 -18.15625 C 2.179688 -18.15625 1.425781 -18.207031 1.011719 -18.207031 C 0.960938 -18.207031 0.648438 -17.40625 1.503906 -17.171875 C 2.28125 -16.988281 2.851562 -16.808594 2.851562 -14.734375 L 2.851562 -3.421875 C 2.851562 -1.347656 2.28125 -1.167969 1.503906 -0.984375 C 0.648438 -0.753906 0.960938 0.0507812 1.011719 0.0507812 C 1.425781 0.0507812 2.179688 0 2.644531 0 Z M 8.25 -10.269531 C 7.625 -10.0625 7.988281 -9.234375 8.066406 -9.234375 L 8.949219 -9.207031 C 11.828125 -9.183594 12.890625 -7.886719 12.890625 -5.058594 C 12.890625 -2.152344 11.179688 -0.90625 9.183594 -0.90625 L 8.300781 -0.90625 C 7.496094 -0.90625 7.339844 -1.140625 7.339844 -1.996094 L 7.339844 -16.183594 C 7.339844 -16.964844 7.417969 -17.25 8.09375 -17.25 L 9.128906 -17.222656 C 10.425781 -17.195312 11.777344 -16.183594 11.777344 -13.644531 C 11.777344 -11.386719 10.84375 -10.660156 9.050781 -10.347656 Z M 8.25 -10.269531 "/></g></g></g><g fill="#000000" fill-opacity="1"><g transform="translate(167.312041, 165.541968)"><g><path d="M 10.660156 0 C 13.875 0 14.914062 0.363281 15.484375 0.363281 C 15.875 0.390625 16.160156 0.128906 16.132812 -0.414062 C 16.03125 -2.203125 16.160156 -4.070312 16.496094 -6.328125 C 16.523438 -6.40625 14.835938 -6.667969 14.578125 -5.5 C 14.109375 -2.644531 13.824219 -1.972656 13.253906 -1.582031 C 12.605469 -1.167969 11.464844 -1.089844 8.535156 -1.089844 C 7.546875 -1.089844 7.316406 -1.089844 7.316406 -2.101562 L 7.316406 -8.25 C 7.316406 -8.558594 7.417969 -9.027344 7.886719 -9.027344 C 8.171875 -9.027344 9.027344 -9.027344 9.753906 -8.972656 C 10.6875 -8.898438 10.789062 -8.714844 11.308594 -6.925781 C 11.492188 -6.277344 12.476562 -6.457031 12.476562 -6.457031 C 12.214844 -8.171875 12.0625 -10.738281 12.347656 -12.554688 C 12.347656 -12.554688 11.359375 -12.917969 11.152344 -12.085938 C 10.765625 -10.453125 10.632812 -10.269531 9.726562 -10.195312 C 8.949219 -10.140625 8.09375 -10.117188 7.886719 -10.117188 C 7.417969 -10.117188 7.316406 -10.582031 7.316406 -10.894531 L 7.316406 -16.132812 C 7.316406 -16.679688 7.523438 -17.066406 8.144531 -17.066406 C 11.230469 -17.066406 12.347656 -17.015625 12.917969 -16.523438 C 13.460938 -16.082031 13.722656 -15.070312 14.058594 -12.761719 C 14.265625 -11.621094 15.820312 -11.828125 15.820312 -11.828125 C 15.433594 -14.085938 15.304688 -16.03125 15.460938 -17.820312 C 15.484375 -18.339844 15.25 -18.519531 14.886719 -18.519531 C 14.238281 -18.546875 13.074219 -18.15625 10.53125 -18.15625 L 2.644531 -18.15625 C 2.179688 -18.15625 1.425781 -18.207031 1.039062 -18.234375 C 0.960938 -18.234375 0.648438 -17.40625 1.503906 -17.171875 C 2.28125 -16.988281 2.851562 -16.808594 2.851562 -14.734375 L 2.851562 -3.421875 C 2.851562 -1.347656 2.28125 -1.167969 1.503906 -0.984375 C 0.648438 -0.753906 0.960938 0.078125 1.039062 0.078125 C 1.425781 0.0507812 2.179688 0 2.644531 0 Z M 10.660156 0 "/></g></g></g><g fill="#000000" fill-opacity="1"><g transform="translate(184.586401, 165.541968)"><g><path d="M 14.5 -7.316406 C 14.371094 -7.730469 14.238281 -7.910156 13.800781 -7.910156 C 12.96875 -7.9375 12.191406 -7.964844 11.4375 -8.015625 L 11.542969 -8.117188 C 15.613281 -8.324219 17.949219 -10.039062 17.949219 -13.152344 C 17.949219 -16.625 15.277344 -18.339844 9.804688 -18.339844 C 7.316406 -18.339844 4.824219 -18.183594 2.644531 -18.15625 C 2.179688 -18.15625 1.425781 -18.207031 1.011719 -18.207031 C 0.960938 -18.207031 0.648438 -17.40625 1.503906 -17.171875 C 2.28125 -16.988281 2.851562 -16.808594 2.851562 -14.734375 L 2.851562 -3.421875 C 2.851562 -1.347656 2.28125 -1.167969 1.503906 -0.984375 C 0.648438 -0.753906 0.960938 0.078125 1.039062 0.078125 C 1.425781 0.0507812 2.179688 0 2.644531 0 L 7.574219 0 C 8.015625 0 8.792969 0.0507812 9.183594 0.078125 C 9.234375 0.078125 9.546875 -0.753906 8.6875 -0.984375 C 7.910156 -1.167969 7.339844 -1.347656 7.339844 -3.421875 L 7.339844 -16.261719 C 7.339844 -17.042969 7.546875 -17.25 8.222656 -17.25 L 9.105469 -17.25 C 11.308594 -17.222656 12.863281 -15.925781 12.863281 -12.996094 C 12.863281 -10.402344 11.855469 -9.105469 9.234375 -8.84375 L 8.378906 -8.820312 C 7.964844 -8.765625 7.910156 -8.457031 8.066406 -8.300781 L 8.6875 -8.171875 C 11.074219 -3.191406 14.835938 0.621094 18.441406 1.246094 C 19.480469 1.296875 19.816406 0.855469 19.921875 0.441406 C 18.675781 -0.492188 16.289062 -2.414062 14.5 -7.316406 Z M 14.5 -7.316406 "/></g></g></g><g fill="#000000" fill-opacity="1"><g transform="translate(204.272943, 165.541968)"><g><path d="M 1.425781 -3.007812 C 0.933594 -1.269531 4.304688 0.46875 7.859375 0.46875 C 12.8125 0.46875 15.796875 -1.632812 15.796875 -5.03125 C 15.796875 -7.964844 13.253906 -9.597656 10.246094 -11.492188 C 7.910156 -12.941406 6.640625 -13.667969 6.640625 -15.382812 C 6.640625 -16.574219 7.652344 -17.480469 9.546875 -17.480469 C 12.113281 -17.480469 13.410156 -16.054688 13.152344 -12.269531 C 13.125 -11.179688 14.109375 -11.386719 14.109375 -11.386719 L 15.40625 -15.589844 C 15.953125 -17.378906 12.371094 -18.597656 9.441406 -18.597656 C 4.929688 -18.597656 2.125 -16.46875 2.125 -13.722656 C 2.125 -11.414062 4.539062 -9.777344 7.625 -7.808594 C 9.777344 -6.484375 11.308594 -5.292969 11.308594 -3.5 C 11.308594 -1.347656 9.492188 -0.675781 7.964844 -0.675781 C 4.796875 -0.675781 3.527344 -2.488281 3.761719 -6.71875 C 3.761719 -7.78125 2.90625 -7.652344 2.90625 -7.652344 Z M 1.425781 -3.007812 "/></g></g></g><g fill="#000000" fill-opacity="1"><g transform="translate(220.924801, 165.541968)"><g><path d="M 20.542969 -0.984375 C 19.789062 -1.167969 19.195312 -1.347656 19.195312 -3.421875 L 19.195312 -14.734375 C 19.195312 -16.808594 19.789062 -16.988281 20.542969 -17.171875 C 21.425781 -17.40625 21.085938 -18.234375 21.035156 -18.234375 C 20.648438 -18.207031 19.894531 -18.15625 19.425781 -18.15625 L 14.5 -18.15625 C 14.03125 -18.15625 13.28125 -18.207031 12.890625 -18.234375 C 12.839844 -18.234375 12.503906 -17.40625 13.382812 -17.171875 C 14.136719 -16.988281 14.734375 -16.808594 14.734375 -14.734375 L 14.734375 -10.324219 C 14.707031 -9.984375 14.550781 -9.832031 14.1875 -9.832031 L 7.886719 -9.832031 C 7.523438 -9.832031 7.339844 -9.984375 7.339844 -10.347656 L 7.339844 -14.734375 C 7.339844 -16.808594 7.910156 -16.988281 8.6875 -17.171875 C 9.546875 -17.40625 9.234375 -18.234375 9.183594 -18.234375 C 8.792969 -18.207031 8.015625 -18.15625 7.574219 -18.15625 L 2.644531 -18.15625 C 2.179688 -18.15625 1.425781 -18.207031 1.039062 -18.234375 C 0.960938 -18.234375 0.648438 -17.40625 1.503906 -17.171875 C 2.28125 -16.988281 2.851562 -16.808594 2.851562 -14.734375 L 2.851562 -3.421875 C 2.851562 -1.347656 2.28125 -1.167969 1.503906 -0.984375 C 0.648438 -0.753906 0.960938 0.078125 1.039062 0.078125 C 1.425781 0.0507812 2.179688 0 2.644531 0 L 7.574219 0 C 8.015625 0 8.792969 0.0507812 9.183594 0.078125 C 9.234375 0.078125 9.546875 -0.753906 8.6875 -0.984375 C 7.910156 -1.167969 7.339844 -1.347656 7.339844 -3.421875 L 7.339844 -8.25 C 7.339844 -8.613281 7.523438 -8.742188 7.886719 -8.742188 L 14.1875 -8.742188 C 14.550781 -8.742188 14.707031 -8.613281 14.734375 -8.25 L 14.734375 -3.421875 C 14.734375 -1.347656 14.136719 -1.167969 13.382812 -0.984375 C 12.503906 -0.753906 12.839844 0.078125 12.890625 0.078125 C 13.28125 0.0507812 14.03125 0 14.5 0 L 19.425781 0 C 19.894531 0 20.648438 0.0507812 21.035156 0.078125 C 21.085938 0.078125 21.425781 -0.753906 20.542969 -0.984375 Z M 20.542969 -0.984375 "/></g></g></g><g fill="#000000" fill-opacity="1"><g transform="translate(242.997586, 165.541968)"><g><path d="M 10.324219 0.46875 C 16.574219 0.46875 21.140625 -3.65625 21.140625 -9.441406 C 21.140625 -14.734375 17.144531 -18.597656 11.4375 -18.597656 C 5.472656 -18.597656 0.855469 -14.394531 0.855469 -8.742188 C 0.855469 -3.371094 4.746094 0.46875 10.324219 0.46875 Z M 12.269531 -0.90625 C 8.429688 -0.90625 5.394531 -8.171875 5.394531 -12.113281 C 5.394531 -15.121094 7.003906 -17.222656 9.597656 -17.222656 C 13.589844 -17.222656 16.496094 -10.0625 16.496094 -6.148438 C 16.496094 -2.773438 14.8125 -0.90625 12.269531 -0.90625 Z M 12.269531 -0.90625 "/></g></g></g><g fill="#000000" fill-opacity="1"><g transform="translate(264.992557, 165.541968)"><g><path d="M 9.285156 -7.445312 C 15.121094 -7.132812 17.535156 -9.492188 17.535156 -12.917969 C 17.535156 -16.46875 14.964844 -18.339844 9.699219 -18.339844 C 7.210938 -18.339844 4.796875 -18.183594 2.644531 -18.15625 C 2.179688 -18.15625 1.425781 -18.207031 1.011719 -18.207031 C 0.960938 -18.207031 0.648438 -17.40625 1.503906 -17.171875 C 2.28125 -16.988281 2.851562 -16.808594 2.851562 -14.734375 L 2.851562 -3.421875 C 2.851562 -1.347656 2.28125 -1.167969 1.503906 -0.984375 C 0.648438 -0.753906 0.960938 0.078125 1.039062 0.078125 C 1.425781 0.0507812 2.179688 0 2.644531 0 L 7.652344 0 C 8.25 0 9.234375 0.0507812 9.753906 0.078125 C 9.832031 0.078125 10.21875 -0.753906 9.105469 -0.984375 C 8.09375 -1.167969 7.339844 -1.347656 7.339844 -3.421875 L 7.339844 -16.238281 C 7.339844 -17.066406 7.523438 -17.25 8.222656 -17.25 L 9.183594 -17.25 C 11.359375 -17.222656 12.710938 -15.121094 12.710938 -12.761719 C 12.710938 -9.855469 11.492188 -8.636719 9.050781 -8.558594 L 8.25 -8.558594 C 7.808594 -8.535156 7.808594 -8.039062 8.066406 -7.496094 Z M 9.285156 -7.445312 "/></g></g></g></svg>