<svg xmlns="http://www.w3.org/2000/svg" xmlns:xlink="http://www.w3.org/1999/xlink" width="400" zoomAndPan="magnify" viewBox="0 0 300 299.999988" height="400" preserveAspectRatio="xMidYMid meet" version="1.0"><defs><g/><clipPath id="id1"><path d="M 17.636719 52.632812 L 207.386719 52.632812 L 207.386719 222 L 17.636719 222 Z M 17.636719 52.632812 " clip-rule="nonzero"/></clipPath><clipPath id="id2"><path d="M 17.636719 54 L 207.386719 54 L 207.386719 223.632812 L 17.636719 223.632812 Z M 17.636719 54 " clip-rule="nonzero"/></clipPath></defs><path fill="#188f0e" d="M 102.492188 124.894531 C 78.703125 107.648438 61.3125 103.925781 62.976562 98.082031 C 64.277344 93.519531 68.1875 95.710938 70.949219 83.648438 C 73.597656 72.0625 64.078125 60.226562 52.597656 57.765625 C 41.34375 54.492188 27.195312 59.800781 23.703125 71.675781 C 19.449219 83.429688 26.367188 97.441406 38.078125 101.621094 C 51.472656 107.683594 69.15625 110.789062 84.335938 130.375 L 95.988281 145.40625 L 169.480469 197.425781 C 178.980469 203.242188 191.621094 206.734375 203.65625 199.195312 L 102.492188 124.898438 Z M 58.132812 69.085938 C 68.136719 79.105469 62.035156 96.828125 48.683594 96.800781 C 36.402344 97.507812 25.214844 82.589844 32.226562 71.5 C 37.140625 62.160156 51.285156 62.226562 58.132812 69.085938 Z M 58.132812 69.085938 " fill-opacity="1" fill-rule="nonzero"/><g clip-path="url(#id1)"><path stroke-linecap="butt" transform="matrix(0.000000000000000026, -0.429891, 0.430175, 0.000000000000000026, -67.62374, 340.287951)" fill="none" stroke-linejoin="miter" d="M 501.041952 395.45793 C 541.159317 340.156974 549.818852 299.730068 563.412415 303.598411 C 574.025571 306.622256 568.927985 315.711954 596.987424 322.13195 C 623.938297 328.288608 651.470713 306.159145 657.195274 279.471212 C 664.80985 253.309955 652.461153 220.419961 624.837871 212.30189 C 597.496274 202.413098 564.902618 218.494871 555.17995 245.71856 C 541.077537 276.855995 533.853686 317.963947 488.293444 353.251223 L 453.328184 380.338703 L 332.321853 551.181427 C 318.791897 573.265487 310.668471 602.650363 328.205621 630.627743 L 501.032865 395.45793 Z M 630.86229 292.338446 C 607.555146 315.593906 566.329215 301.409982 566.392822 270.372434 C 564.748146 241.822975 599.449894 215.816089 625.246768 232.115796 C 646.972843 243.539212 646.81837 276.420125 630.86229 292.338446 Z M 630.86229 292.338446 " stroke="#000000" stroke-width="7.541" stroke-opacity="1" stroke-miterlimit="4"/></g><path fill="#188f0e" d="M 103.144531 151.46875 C 79.3125 168.660156 61.917969 172.347656 63.566406 178.191406 C 64.859375 182.757812 68.773438 180.574219 71.503906 192.644531 C 74.128906 204.234375 64.585938 216.050781 53.097656 218.484375 C 41.835938 221.734375 27.699219 216.394531 24.234375 204.507812 C 20.003906 192.746094 26.953125 178.753906 38.679688 174.597656 C 52.082031 168.566406 69.777344 165.5 85 145.949219 L 96.683594 130.941406 L 170.292969 79.085938 C 179.804688 73.289062 192.453125 69.824219 204.46875 77.390625 Z M 58.660156 207.175781 C 68.683594 197.179688 62.621094 179.441406 49.269531 179.445312 C 36.988281 178.707031 25.769531 193.601562 32.757812 204.707031 C 37.652344 214.054688 51.796875 214.019531 58.660156 207.175781 Z M 58.660156 207.175781 " fill-opacity="1" fill-rule="nonzero"/><g clip-path="url(#id2)"><path stroke-linecap="butt" transform="matrix(0.000000000000000026, -0.429891, 0.430175, 0.000000000000000026, -67.62374, 340.287951)" fill="none" stroke-linejoin="miter" d="M 439.225772 396.974393 C 399.235619 341.57355 390.657863 301.137564 377.064301 304.969584 C 366.442059 307.975268 371.521471 317.074046 343.443859 323.421397 C 316.483899 329.523572 288.996916 307.339625 283.335961 280.633531 C 275.775905 254.454113 288.197295 221.591361 315.847837 213.536854 C 343.207607 203.702546 375.75583 219.856963 385.423978 247.116975 C 399.453698 278.272571 406.586683 319.407765 452.065146 354.794928 L 486.975886 381.955053 L 607.600579 553.070195 C 621.085103 575.181497 629.144922 604.584534 611.544166 632.516511 Z M 309.641685 293.564329 C 332.89431 316.865192 374.156587 302.772075 374.1475 271.734527 C 375.864869 243.185068 341.217641 217.105536 315.38442 233.35076 C 293.640172 244.728772 293.721951 277.609686 309.641685 293.564329 Z M 309.641685 293.564329 " stroke="#000000" stroke-width="7.541" stroke-opacity="1" stroke-miterlimit="4"/></g><g fill="#188f0e" fill-opacity="1"><g transform="translate(191.821236, 139.221324)"><g><path d="M 46.503906 -48.441406 L 32.132812 -17.601562 L 17.84375 -48.441406 L 4.441406 -48.441406 L 4.441406 0 L 16.792969 0 L 16.792969 -26.078125 L 28.824219 0 L 35.441406 0 L 47.472656 -25.917969 L 47.472656 0 L 59.824219 0 L 59.824219 -48.441406 Z M 46.503906 -48.441406 "/></g></g></g><g fill="#188f0e" fill-opacity="1"><g transform="translate(191.821236, 186.185364)"><g><path d="M 5.535156 0 C 10.097656 0.0546875 15.308594 0.378906 20.519531 0.378906 C 31.972656 0.378906 37.996094 -3.691406 37.996094 -10.964844 C 37.996094 -17.316406 32.730469 -20.410156 25.023438 -20.789062 C 31.59375 -21.496094 34.902344 -24.480469 34.902344 -29.800781 C 34.902344 -34.199219 30.832031 -38.433594 20.300781 -38.433594 C 16.992188 -38.433594 9.554688 -38.050781 5.484375 -37.996094 C 4.558594 -37.996094 2.984375 -38.105469 2.117188 -38.105469 C 2.007812 -38.105469 1.355469 -36.421875 3.148438 -35.933594 C 4.777344 -35.554688 5.972656 -35.175781 5.972656 -30.832031 L 5.972656 -7.164062 C 5.972656 -2.824219 4.777344 -2.441406 3.148438 -2.0625 C 1.355469 -1.574219 2.007812 0.109375 2.117188 0.109375 C 2.984375 0.109375 4.558594 0 5.535156 0 Z M 17.261719 -21.496094 C 15.960938 -21.0625 16.71875 -19.324219 16.882812 -19.324219 L 18.726562 -19.269531 C 24.753906 -19.214844 26.976562 -16.5 26.976562 -10.585938 C 26.976562 -4.503906 23.394531 -1.898438 19.214844 -1.898438 L 17.371094 -1.898438 C 15.6875 -1.898438 15.363281 -2.386719 15.363281 -4.179688 L 15.363281 -33.871094 C 15.363281 -35.5 15.523438 -36.097656 16.9375 -36.097656 L 19.109375 -36.042969 C 21.820312 -35.988281 24.644531 -33.871094 24.644531 -28.550781 C 24.644531 -23.828125 22.691406 -22.308594 18.945312 -21.660156 Z M 17.261719 -21.496094 "/></g></g></g></svg>