<svg xmlns="http://www.w3.org/2000/svg" xmlns:xlink="http://www.w3.org/1999/xlink" width="400" zoomAndPan="magnify" viewBox="0 0 300 299.999988" height="400" preserveAspectRatio="xMidYMid meet" version="1.0"><defs><g/><clipPath id="id1"><path d="M 17.636719 52.632812 L 207.386719 52.632812 L 207.386719 222 L 17.636719 222 Z M 17.636719 52.632812 " clip-rule="nonzero"/></clipPath><clipPath id="id2"><path d="M 17.636719 54 L 207.386719 54 L 207.386719 223.632812 L 17.636719 223.632812 Z M 17.636719 54 " clip-rule="nonzero"/></clipPath></defs><path fill="#000000" d="M 102.492188 124.894531 C 78.703125 107.648438 61.3125 103.925781 62.976562 98.082031 C 64.277344 93.519531 68.1875 95.710938 70.949219 83.648438 C 73.597656 72.0625 64.078125 60.226562 52.597656 57.765625 C 41.34375 54.492188 27.195312 59.800781 23.703125 71.675781 C 19.449219 83.429688 26.367188 97.441406 38.078125 101.621094 C 51.472656 107.683594 69.15625 110.789062 84.335938 130.375 L 95.988281 145.40625 L 169.480469 197.425781 C 178.980469 203.242188 191.621094 206.734375 203.65625 199.195312 L 102.492188 124.898438 Z M 58.132812 69.085938 C 68.136719 79.105469 62.035156 96.828125 48.683594 96.800781 C 36.402344 97.507812 25.214844 82.589844 32.226562 71.5 C 37.140625 62.160156 51.285156 62.230469 58.132812 69.085938 Z M 58.132812 69.085938 " fill-opacity="1" fill-rule="nonzero"/><g clip-path="url(#id1)"><path stroke-linecap="butt" transform="matrix(0.000000000000000026, -0.429891, 0.430175, 0.000000000000000026, -67.623754, 340.288009)" fill="none" stroke-linejoin="miter" d="M 501.042086 395.457897 C 541.159451 340.156951 549.818986 299.730052 563.412549 303.598394 C 574.025705 306.622238 568.928119 315.711934 596.987558 322.131929 C 623.938431 328.288586 651.470847 306.159127 657.195408 279.471199 C 664.809984 253.309946 652.461287 220.419958 624.838005 212.301888 C 597.496408 202.413098 564.902752 218.494868 555.180084 245.718552 C 541.077671 276.855982 533.85382 317.963927 488.293578 353.251198 L 453.328318 380.338673 L 332.321987 551.181368 C 318.792031 573.265424 310.668605 602.650295 328.205755 630.627671 L 501.032999 395.457897 Z M 630.862424 292.338431 C 607.55528 315.593886 566.329349 301.409965 566.392956 270.372422 C 564.74828 241.822968 599.450028 215.816086 625.246902 232.11579 C 646.972977 243.539204 646.809418 276.420112 630.862424 292.338431 Z M 630.862424 292.338431 " stroke="#000000" stroke-width="7.541" stroke-opacity="1" stroke-miterlimit="4"/></g><path fill="#000000" d="M 103.144531 151.46875 C 79.3125 168.660156 61.917969 172.347656 63.566406 178.191406 C 64.859375 182.757812 68.773438 180.574219 71.503906 192.644531 C 74.128906 204.234375 64.585938 216.050781 53.097656 218.484375 C 41.835938 221.734375 27.699219 216.394531 24.234375 204.507812 C 20.003906 192.746094 26.953125 178.753906 38.679688 174.597656 C 52.082031 168.566406 69.777344 165.5 85 145.949219 L 96.683594 130.941406 L 170.292969 79.085938 C 179.804688 73.289062 192.453125 69.824219 204.46875 77.390625 Z M 58.660156 207.175781 C 68.683594 197.179688 62.621094 179.441406 49.269531 179.445312 C 36.988281 178.707031 25.769531 193.601562 32.757812 204.707031 C 37.652344 214.054688 51.796875 214.019531 58.660156 207.175781 Z M 58.660156 207.175781 " fill-opacity="1" fill-rule="nonzero"/><g clip-path="url(#id2)"><path stroke-linecap="butt" transform="matrix(0.000000000000000026, -0.429891, 0.430175, 0.000000000000000026, -67.623754, 340.288009)" fill="none" stroke-linejoin="miter" d="M 439.225906 396.97436 C 399.235753 341.573527 390.657997 301.137547 377.064435 304.969567 C 366.442193 307.97525 371.521605 317.074027 343.443993 323.421377 C 316.484033 329.52355 288.99705 307.339607 283.336095 280.633518 C 275.776039 254.454104 288.197429 221.591357 315.847971 213.536852 C 343.207741 203.702545 375.755964 219.85696 385.424112 247.116967 C 399.453832 278.272558 406.586817 319.407745 452.06528 354.794902 L 486.97602 381.955023 L 607.600713 553.070136 C 621.085237 575.181434 629.145056 604.584466 611.5443 632.516439 Z M 309.641819 293.564314 C 332.894443 316.865172 374.156721 302.772058 374.147634 271.734515 C 375.865003 243.18506 341.217775 217.105533 315.384554 233.350754 C 293.640306 244.728765 293.722085 277.609673 309.641819 293.564314 Z M 309.641819 293.564314 " stroke="#000000" stroke-width="7.541" stroke-opacity="1" stroke-miterlimit="4"/></g><g fill="#000000" fill-opacity="1"><g transform="translate(191.821236, 139.221382)"><g><path d="M 46.503906 -48.441406 L 32.132812 -17.601562 L 17.84375 -48.441406 L 4.441406 -48.441406 L 4.441406 0 L 16.792969 0 L 16.792969 -26.078125 L 28.824219 0 L 35.441406 0 L 47.472656 -25.917969 L 47.472656 0 L 59.824219 0 L 59.824219 -48.441406 Z M 46.503906 -48.441406 "/></g></g></g><g fill="#000000" fill-opacity="1"><g transform="translate(191.821236, 186.185422)"><g><path d="M 5.535156 0 C 10.097656 0.0546875 15.308594 0.378906 20.519531 0.378906 C 31.972656 0.378906 37.996094 -3.691406 37.996094 -10.964844 C 37.996094 -17.316406 32.730469 -20.410156 25.023438 -20.789062 C 31.59375 -21.496094 34.902344 -24.480469 34.902344 -29.800781 C 34.902344 -34.199219 30.832031 -38.433594 20.300781 -38.433594 C 16.992188 -38.433594 9.554688 -38.050781 5.484375 -37.996094 C 4.558594 -37.996094 2.984375 -38.105469 2.117188 -38.105469 C 2.007812 -38.105469 1.355469 -36.421875 3.148438 -35.933594 C 4.777344 -35.554688 5.972656 -35.175781 5.972656 -30.832031 L 5.972656 -7.164062 C 5.972656 -2.824219 4.777344 -2.441406 3.148438 -2.0625 C 1.355469 -1.574219 2.007812 0.109375 2.117188 0.109375 C 2.984375 0.109375 4.558594 0 5.535156 0 Z M 17.261719 -21.496094 C 15.960938 -21.0625 16.71875 -19.324219 16.882812 -19.324219 L 18.726562 -19.269531 C 24.753906 -19.214844 26.976562 -16.5 26.976562 -10.585938 C 26.976562 -4.503906 23.394531 -1.898438 19.214844 -1.898438 L 17.371094 -1.898438 C 15.6875 -1.898438 15.363281 -2.386719 15.363281 -4.179688 L 15.363281 -33.871094 C 15.363281 -35.5 15.523438 -36.097656 16.9375 -36.097656 L 19.109375 -36.042969 C 21.820312 -35.988281 24.644531 -33.871094 24.644531 -28.550781 C 24.644531 -23.828125 22.691406 -22.308594 18.945312 -21.660156 Z M 17.261719 -21.496094 "/></g></g></g></svg>