<svg xmlns="http://www.w3.org/2000/svg" xmlns:xlink="http://www.w3.org/1999/xlink" width="400" zoomAndPan="magnify" viewBox="0 0 300 299.999988" height="400" preserveAspectRatio="xMidYMid meet" version="1.0"><defs><g/><clipPath id="id1"><path d="M 0 87.386719 L 89.894531 87.386719 L 89.894531 168 L 0 168 Z M 0 87.386719 " clip-rule="nonzero"/></clipPath><clipPath id="id2"><path d="M 0 88 L 89.894531 88 L 89.894531 168.601562 L 0 168.601562 Z M 0 88 " clip-rule="nonzero"/></clipPath></defs><path fill="#ffffff" d="M 40.199219 121.707031 C 28.929688 113.519531 20.691406 111.75 21.480469 108.976562 C 22.097656 106.804688 23.949219 107.847656 25.257812 102.117188 C 26.511719 96.617188 22.003906 90.996094 16.5625 89.828125 C 11.230469 88.273438 4.53125 90.792969 2.875 96.433594 C 0.859375 102.015625 4.136719 108.667969 9.6875 110.65625 C 16.03125 113.535156 24.410156 115.007812 31.597656 124.308594 L 37.121094 131.449219 L 71.933594 156.152344 C 76.4375 158.914062 82.425781 160.574219 88.125 156.992188 Z M 19.1875 95.203125 C 23.925781 99.960938 21.035156 108.378906 14.710938 108.363281 C 8.890625 108.703125 3.589844 101.617188 6.914062 96.347656 C 9.242188 91.914062 15.941406 91.945312 19.1875 95.203125 Z M 19.1875 95.203125 " fill-opacity="1" fill-rule="nonzero"/><g clip-path="url(#id1)"><path stroke-linecap="butt" transform="matrix(0.000000000000000013, -0.204157, 0.203791, 0.000000000000000012, -40.390522, 223.998659)" fill="none" stroke-linejoin="miter" d="M 501.043406 395.452771 C 541.147303 340.153333 549.814796 299.728198 563.399608 303.600117 C 574.037856 306.628648 568.929201 315.71424 596.998102 322.135492 C 623.938124 328.288393 651.471286 306.168618 657.192215 279.467711 C 664.807363 253.303505 652.46623 220.430529 624.837401 212.303333 C 597.495574 202.412688 564.911158 218.494569 555.172186 245.732178 C 541.070768 276.860874 533.857424 317.976054 488.300469 353.24502 L 453.32436 380.348453 L 332.323862 551.172921 C 318.79645 573.273528 310.664696 602.657944 328.210151 630.623933 Z M 630.864465 292.34855 C 607.559815 315.599232 566.32704 301.414974 566.403574 270.382118 C 564.738956 241.821923 599.447195 215.811061 625.258339 232.122958 C 646.974905 243.547036 646.821837 276.420012 630.864465 292.34855 Z M 630.864465 292.34855 " stroke="#000000" stroke-width="7.541" stroke-opacity="1" stroke-miterlimit="4"/></g><path fill="#ffffff" d="M 40.507812 134.328125 C 29.21875 142.492188 20.976562 144.242188 21.761719 147.019531 C 22.371094 149.1875 24.226562 148.148438 25.519531 153.882812 C 26.761719 159.386719 22.242188 164.996094 16.800781 166.152344 C 11.464844 167.695312 4.769531 165.160156 3.125 159.515625 C 1.121094 153.929688 4.414062 147.285156 9.96875 145.3125 C 16.320312 142.449219 24.703125 140.992188 31.914062 131.707031 L 37.449219 124.578125 L 72.320312 99.953125 C 76.828125 97.199219 82.820312 95.554688 88.511719 99.148438 Z M 19.433594 160.785156 C 24.183594 156.035156 21.3125 147.613281 14.988281 147.613281 C 9.167969 147.261719 3.855469 154.335938 7.164062 159.609375 C 9.484375 164.050781 16.183594 164.03125 19.433594 160.785156 Z M 19.433594 160.785156 " fill-opacity="1" fill-rule="nonzero"/><g clip-path="url(#id2)"><path stroke-linecap="butt" transform="matrix(0.000000000000000013, -0.204157, 0.203791, 0.000000000000000012, -40.390522, 223.998659)" fill="none" stroke-linejoin="miter" d="M 439.222942 396.967036 C 399.233847 341.571759 390.662021 301.127456 377.058075 304.980207 C 366.438961 307.970402 371.528483 317.075162 343.440448 323.419742 C 316.481292 329.515139 289.00553 307.337861 283.342003 280.636953 C 275.784255 254.45358 288.201922 221.599772 315.849885 213.530079 C 343.210845 203.696938 375.756995 219.855492 385.419432 247.112268 C 399.444315 278.2793 406.581125 319.413648 452.061547 354.797621 L 486.980255 381.958558 L 607.598082 553.070545 C 621.087227 575.19032 629.142447 604.593903 611.539591 632.521557 Z M 309.631485 293.556129 C 332.897868 316.864315 374.149777 302.775896 374.149777 271.74304 C 375.871796 243.182845 341.220957 217.11448 315.39068 233.349704 C 293.635847 244.735447 293.731514 277.608423 309.631485 293.556129 Z M 309.631485 293.556129 " stroke="#000000" stroke-width="7.541" stroke-opacity="1" stroke-miterlimit="4"/></g><g fill="#ffffff" fill-opacity="1"><g transform="translate(83.642156, 131.681658)"><g><path d="M 22.097656 -23.019531 L 15.269531 -8.363281 L 8.480469 -23.019531 L 2.109375 -23.019531 L 2.109375 0 L 7.980469 0 L 7.980469 -12.390625 L 13.695312 0 L 16.84375 0 L 22.558594 -12.316406 L 22.558594 0 L 28.429688 0 L 28.429688 -23.019531 Z M 22.097656 -23.019531 "/></g></g></g><g fill="#ffffff" fill-opacity="1"><g transform="translate(114.17612, 131.681658)"><g><path d="M 13.121094 0.308594 C 19.644531 0.308594 24.9375 -4.988281 24.9375 -11.511719 C 24.9375 -18.03125 19.644531 -23.328125 13.121094 -23.328125 C 6.5625 -23.328125 1.304688 -18.03125 1.304688 -11.511719 C 1.304688 -4.988281 6.5625 0.308594 13.121094 0.308594 Z M 13.121094 -5.449219 C 9.628906 -5.449219 7.019531 -8.019531 7.019531 -11.511719 C 7.019531 -15 9.628906 -17.570312 13.121094 -17.570312 C 16.574219 -17.570312 19.183594 -15 19.183594 -11.511719 C 19.183594 -8.019531 16.574219 -5.449219 13.121094 -5.449219 Z M 13.121094 -5.449219 "/></g></g></g><g fill="#ffffff" fill-opacity="1"><g transform="translate(140.37549, 131.681658)"><g><path d="M 11.855469 0.308594 C 17.378906 0.308594 21.714844 -3.03125 21.714844 -7.328125 L 21.714844 -23.019531 L 15.84375 -23.019531 L 15.84375 -8.441406 C 15.84375 -6.40625 14.082031 -4.796875 11.855469 -4.796875 C 9.628906 -4.796875 7.863281 -6.40625 7.863281 -8.441406 L 7.863281 -23.019531 L 1.996094 -23.019531 L 1.996094 -7.328125 C 1.996094 -3.03125 6.332031 0.308594 11.855469 0.308594 Z M 11.855469 0.308594 "/></g></g></g><g fill="#ffffff" fill-opacity="1"><g transform="translate(164.081509, 131.681658)"><g><path d="M 9.628906 0.308594 C 14.042969 0.308594 17.839844 -2.261719 17.839844 -6.675781 C 17.839844 -15.421875 7.40625 -13.238281 7.40625 -16.726562 C 7.40625 -17.726562 8.171875 -18.1875 9.09375 -18.1875 C 10.242188 -18.1875 11.511719 -17.496094 12.738281 -16.191406 L 16.574219 -19.914062 C 14.769531 -22.023438 12.046875 -23.328125 9.167969 -23.328125 C 5.523438 -23.328125 1.496094 -21.21875 1.496094 -16.304688 C 1.496094 -8.324219 11.96875 -10.242188 11.96875 -6.753906 C 11.96875 -5.832031 11.203125 -5.179688 9.707031 -5.179688 C 7.710938 -5.179688 6.101562 -6.253906 5.292969 -7.980469 L 0.5 -4.988281 C 2.035156 -2.070312 5.410156 0.308594 9.628906 0.308594 Z M 9.628906 0.308594 "/></g></g></g><g fill="#ffffff" fill-opacity="1"><g transform="translate(182.762468, 131.681658)"><g><path d="M 16.765625 -23.019531 L -0.34375 -23.019531 L -0.34375 -17.917969 L 5.292969 -17.917969 L 5.292969 0 L 11.125 0 L 11.125 -17.917969 L 16.765625 -17.917969 Z M 16.765625 -23.019531 "/></g></g></g><g fill="#ffffff" fill-opacity="1"><g transform="translate(199.180228, 131.681658)"><g><path d="M 16.230469 0 L 22.519531 0 L 14.195312 -23.019531 L 7.636719 -23.019531 L -0.691406 0 L 5.640625 0 L 6.90625 -4.027344 L 14.964844 -4.027344 Z M 8.402344 -8.785156 L 10.933594 -16.917969 L 13.503906 -8.785156 Z M 8.402344 -8.785156 "/></g></g></g><g fill="#ffffff" fill-opacity="1"><g transform="translate(221.045006, 131.681658)"><g><path d="M 13.121094 0.308594 C 17.6875 0.308594 21.675781 -2.300781 23.632812 -6.140625 L 18.570312 -8.710938 C 17.570312 -6.714844 15.578125 -5.449219 13.121094 -5.449219 C 9.628906 -5.449219 7.019531 -8.019531 7.019531 -11.511719 C 7.019531 -15 9.628906 -17.570312 13.121094 -17.570312 C 15.578125 -17.570312 17.570312 -16.304688 18.570312 -14.3125 L 23.632812 -16.882812 C 21.675781 -20.71875 17.6875 -23.328125 13.121094 -23.328125 C 6.5625 -23.328125 1.304688 -18.03125 1.304688 -11.511719 C 1.304688 -4.988281 6.5625 0.308594 13.121094 0.308594 Z M 13.121094 0.308594 "/></g></g></g><g fill="#ffffff" fill-opacity="1"><g transform="translate(245.594928, 131.681658)"><g><path d="M 16.269531 -23.019531 L 16.269531 -14.082031 L 7.980469 -14.082031 L 7.980469 -23.019531 L 2.109375 -23.019531 L 2.109375 0 L 7.980469 0 L 7.980469 -8.976562 L 16.269531 -8.976562 L 16.269531 0 L 22.136719 0 L 22.136719 -23.019531 Z M 16.269531 -23.019531 "/></g></g></g><g fill="#ffffff" fill-opacity="1"><g transform="translate(269.87633, 131.681658)"><g><path d="M 16.574219 -17.917969 L 16.574219 -23.019531 L 2.300781 -23.019531 L 2.300781 0 L 16.574219 0 L 16.574219 -5.101562 L 8.171875 -5.101562 L 8.171875 -8.976562 L 15.269531 -8.976562 L 15.269531 -14.042969 L 8.171875 -14.042969 L 8.171875 -17.917969 Z M 16.574219 -17.917969 "/></g></g></g><g fill="#ffffff" fill-opacity="1"><g transform="translate(86.451289, 153.999732)"><g><path d="M 2.632812 0 C 4.796875 0.0273438 7.273438 0.179688 9.75 0.179688 C 15.195312 0.179688 18.058594 -1.753906 18.058594 -5.210938 C 18.058594 -8.230469 15.554688 -9.699219 11.890625 -9.878906 C 15.011719 -10.214844 16.585938 -11.632812 16.585938 -14.160156 C 16.585938 -16.25 14.652344 -18.261719 9.648438 -18.261719 C 8.074219 -18.261719 4.539062 -18.082031 2.605469 -18.058594 C 2.167969 -18.058594 1.417969 -18.109375 1.007812 -18.109375 C 0.953125 -18.109375 0.644531 -17.308594 1.496094 -17.078125 C 2.269531 -16.894531 2.835938 -16.714844 2.835938 -14.652344 L 2.835938 -3.40625 C 2.835938 -1.339844 2.269531 -1.160156 1.496094 -0.980469 C 0.644531 -0.75 0.953125 0.0507812 1.007812 0.0507812 C 1.417969 0.0507812 2.167969 0 2.632812 0 Z M 8.203125 -10.214844 C 7.585938 -10.007812 7.945312 -9.183594 8.023438 -9.183594 L 8.898438 -9.15625 C 11.761719 -9.132812 12.820312 -7.84375 12.820312 -5.03125 C 12.820312 -2.140625 11.117188 -0.902344 9.132812 -0.902344 L 8.253906 -0.902344 C 7.453125 -0.902344 7.300781 -1.136719 7.300781 -1.984375 L 7.300781 -16.097656 C 7.300781 -16.871094 7.378906 -17.15625 8.046875 -17.15625 L 9.082031 -17.128906 C 10.371094 -17.101562 11.710938 -16.097656 11.710938 -13.570312 C 11.710938 -11.324219 10.78125 -10.601562 9.003906 -10.292969 Z M 8.203125 -10.214844 "/></g></g></g><g fill="#ffffff" fill-opacity="1"><g transform="translate(105.978571, 153.999732)"><g><path d="M 18.726562 -0.980469 C 18.238281 -1.160156 17.773438 -1.339844 17 -3.222656 L 11.660156 -16.226562 C 10.988281 -17.902344 10.679688 -18.058594 8.640625 -18.058594 L 5.882812 -18.058594 C 5.726562 -18.058594 5.46875 -17.386719 6.164062 -17.207031 C 6.5 -17.101562 6.628906 -17.050781 6.835938 -16.613281 L 6.886719 -16.484375 C 7.066406 -16.070312 7.195312 -15.324219 6.964844 -14.78125 L 2.296875 -3.222656 C 1.523438 -1.339844 1.058594 -1.160156 0.515625 -0.980469 C -0.078125 -0.75 0.15625 0.078125 0.207031 0.078125 C 0.488281 0.0507812 1.007812 0 1.316406 0 L 2.941406 0 C 3.535156 0 4.566406 0.0507812 5.082031 0.078125 C 5.160156 0.078125 5.570312 -0.75 4.410156 -0.980469 C 3.40625 -1.160156 2.683594 -1.339844 3.457031 -3.25 L 3.84375 -4.203125 L 3.84375 -4.152344 C 3.972656 -4.386719 4.101562 -4.4375 4.386719 -4.4375 C 6.835938 -4.4375 8.875 -4.460938 11.296875 -4.4375 C 11.53125 -4.4375 11.710938 -4.4375 11.867188 -4.257812 L 12.277344 -3.222656 C 13.078125 -1.339844 12.460938 -1.160156 11.53125 -0.980469 C 10.5 -0.75 10.859375 0.078125 10.9375 0.078125 C 11.402344 0.0507812 12.304688 0 12.871094 0 L 17.980469 0 C 18.261719 0 18.78125 0.0507812 19.039062 0.078125 C 19.0625 0.078125 19.296875 -0.75 18.726562 -0.980469 Z M 10.9375 -5.570312 C 8.746094 -5.519531 7.015625 -5.519531 4.824219 -5.546875 C 4.589844 -5.546875 4.488281 -5.777344 4.589844 -6.011719 L 4.566406 -6.011719 L 7.867188 -14.085938 L 11.195312 -5.90625 C 11.222656 -5.753906 11.117188 -5.570312 10.9375 -5.570312 Z M 10.9375 -5.570312 "/></g></g></g><g fill="#ffffff" fill-opacity="1"><g transform="translate(125.892777, 153.999732)"><g><path d="M 14.421875 -7.273438 C 14.289062 -7.6875 14.160156 -7.867188 13.722656 -7.867188 C 12.898438 -7.894531 12.125 -7.917969 11.375 -7.972656 L 11.480469 -8.074219 C 15.527344 -8.28125 17.851562 -9.984375 17.851562 -13.078125 C 17.851562 -16.535156 15.195312 -18.238281 9.75 -18.238281 C 7.273438 -18.238281 4.796875 -18.082031 2.632812 -18.058594 C 2.167969 -18.058594 1.417969 -18.109375 1.007812 -18.109375 C 0.953125 -18.109375 0.644531 -17.308594 1.496094 -17.078125 C 2.269531 -16.894531 2.835938 -16.714844 2.835938 -14.652344 L 2.835938 -3.40625 C 2.835938 -1.339844 2.269531 -1.160156 1.496094 -0.980469 C 0.644531 -0.75 0.953125 0.078125 1.03125 0.078125 C 1.417969 0.0507812 2.167969 0 2.632812 0 L 7.53125 0 C 7.972656 0 8.746094 0.0507812 9.132812 0.078125 C 9.183594 0.078125 9.492188 -0.75 8.640625 -0.980469 C 7.867188 -1.160156 7.300781 -1.339844 7.300781 -3.40625 L 7.300781 -16.175781 C 7.300781 -16.949219 7.507812 -17.15625 8.175781 -17.15625 L 9.054688 -17.15625 C 11.246094 -17.128906 12.792969 -15.839844 12.792969 -12.921875 C 12.792969 -10.34375 11.789062 -9.054688 9.183594 -8.796875 L 8.332031 -8.769531 C 7.917969 -8.71875 7.867188 -8.410156 8.023438 -8.253906 L 8.640625 -8.125 C 11.015625 -3.171875 14.753906 0.617188 18.339844 1.238281 C 19.371094 1.289062 19.707031 0.851562 19.8125 0.4375 C 18.574219 -0.488281 16.199219 -2.398438 14.421875 -7.273438 Z M 14.421875 -7.273438 "/></g></g></g><g fill="#ffffff" fill-opacity="1"><g transform="translate(146.168123, 153.999732)"><g><path d="M 2.632812 0 C 4.796875 0.0273438 7.273438 0.179688 9.75 0.179688 C 15.195312 0.179688 18.058594 -1.753906 18.058594 -5.210938 C 18.058594 -8.230469 15.554688 -9.699219 11.890625 -9.878906 C 15.011719 -10.214844 16.585938 -11.632812 16.585938 -14.160156 C 16.585938 -16.25 14.652344 -18.261719 9.648438 -18.261719 C 8.074219 -18.261719 4.539062 -18.082031 2.605469 -18.058594 C 2.167969 -18.058594 1.417969 -18.109375 1.007812 -18.109375 C 0.953125 -18.109375 0.644531 -17.308594 1.496094 -17.078125 C 2.269531 -16.894531 2.835938 -16.714844 2.835938 -14.652344 L 2.835938 -3.40625 C 2.835938 -1.339844 2.269531 -1.160156 1.496094 -0.980469 C 0.644531 -0.75 0.953125 0.0507812 1.007812 0.0507812 C 1.417969 0.0507812 2.167969 0 2.632812 0 Z M 8.203125 -10.214844 C 7.585938 -10.007812 7.945312 -9.183594 8.023438 -9.183594 L 8.898438 -9.15625 C 11.761719 -9.132812 12.820312 -7.84375 12.820312 -5.03125 C 12.820312 -2.140625 11.117188 -0.902344 9.132812 -0.902344 L 8.253906 -0.902344 C 7.453125 -0.902344 7.300781 -1.136719 7.300781 -1.984375 L 7.300781 -16.097656 C 7.300781 -16.871094 7.378906 -17.15625 8.046875 -17.15625 L 9.082031 -17.128906 C 10.371094 -17.101562 11.710938 -16.097656 11.710938 -13.570312 C 11.710938 -11.324219 10.78125 -10.601562 9.003906 -10.292969 Z M 8.203125 -10.214844 "/></g></g></g><g fill="#ffffff" fill-opacity="1"><g transform="translate(165.695407, 153.999732)"><g><path d="M 10.601562 0 C 13.800781 0 14.832031 0.359375 15.398438 0.359375 C 15.789062 0.386719 16.070312 0.128906 16.046875 -0.414062 C 15.941406 -2.191406 16.070312 -4.050781 16.40625 -6.292969 C 16.433594 -6.371094 14.753906 -6.628906 14.496094 -5.46875 C 14.03125 -2.632812 13.75 -1.960938 13.183594 -1.574219 C 12.535156 -1.160156 11.402344 -1.082031 8.488281 -1.082031 C 7.507812 -1.082031 7.273438 -1.082031 7.273438 -2.089844 L 7.273438 -8.203125 C 7.273438 -8.511719 7.378906 -8.976562 7.84375 -8.976562 C 8.125 -8.976562 8.976562 -8.976562 9.699219 -8.925781 C 10.628906 -8.847656 10.730469 -8.667969 11.246094 -6.886719 C 11.425781 -6.242188 12.40625 -6.421875 12.40625 -6.421875 C 12.148438 -8.125 11.996094 -10.679688 12.277344 -12.484375 C 12.277344 -12.484375 11.296875 -12.847656 11.09375 -12.019531 C 10.707031 -10.394531 10.578125 -10.214844 9.671875 -10.136719 C 8.898438 -10.085938 8.046875 -10.058594 7.84375 -10.058594 C 7.378906 -10.058594 7.273438 -10.523438 7.273438 -10.835938 L 7.273438 -16.046875 C 7.273438 -16.585938 7.480469 -16.972656 8.101562 -16.972656 C 11.167969 -16.972656 12.277344 -16.921875 12.847656 -16.433594 C 13.386719 -15.992188 13.644531 -14.988281 13.980469 -12.691406 C 14.1875 -11.554688 15.734375 -11.761719 15.734375 -11.761719 C 15.347656 -14.007812 15.21875 -15.941406 15.375 -17.722656 C 15.398438 -18.238281 15.167969 -18.417969 14.808594 -18.417969 C 14.160156 -18.445312 13 -18.058594 10.472656 -18.058594 L 2.632812 -18.058594 C 2.167969 -18.058594 1.417969 -18.109375 1.03125 -18.132812 C 0.953125 -18.132812 0.644531 -17.308594 1.496094 -17.078125 C 2.269531 -16.894531 2.835938 -16.714844 2.835938 -14.652344 L 2.835938 -3.40625 C 2.835938 -1.339844 2.269531 -1.160156 1.496094 -0.980469 C 0.644531 -0.75 0.953125 0.078125 1.03125 0.078125 C 1.417969 0.0507812 2.167969 0 2.632812 0 Z M 10.601562 0 "/></g></g></g><g fill="#ffffff" fill-opacity="1"><g transform="translate(183.571776, 153.999732)"><g><path d="M 14.421875 -7.273438 C 14.289062 -7.6875 14.160156 -7.867188 13.722656 -7.867188 C 12.898438 -7.894531 12.125 -7.917969 11.375 -7.972656 L 11.480469 -8.074219 C 15.527344 -8.28125 17.851562 -9.984375 17.851562 -13.078125 C 17.851562 -16.535156 15.195312 -18.238281 9.75 -18.238281 C 7.273438 -18.238281 4.796875 -18.082031 2.632812 -18.058594 C 2.167969 -18.058594 1.417969 -18.109375 1.007812 -18.109375 C 0.953125 -18.109375 0.644531 -17.308594 1.496094 -17.078125 C 2.269531 -16.894531 2.835938 -16.714844 2.835938 -14.652344 L 2.835938 -3.40625 C 2.835938 -1.339844 2.269531 -1.160156 1.496094 -0.980469 C 0.644531 -0.75 0.953125 0.078125 1.03125 0.078125 C 1.417969 0.0507812 2.167969 0 2.632812 0 L 7.53125 0 C 7.972656 0 8.746094 0.0507812 9.132812 0.078125 C 9.183594 0.078125 9.492188 -0.75 8.640625 -0.980469 C 7.867188 -1.160156 7.300781 -1.339844 7.300781 -3.40625 L 7.300781 -16.175781 C 7.300781 -16.949219 7.507812 -17.15625 8.175781 -17.15625 L 9.054688 -17.15625 C 11.246094 -17.128906 12.792969 -15.839844 12.792969 -12.921875 C 12.792969 -10.34375 11.789062 -9.054688 9.183594 -8.796875 L 8.332031 -8.769531 C 7.917969 -8.71875 7.867188 -8.410156 8.023438 -8.253906 L 8.640625 -8.125 C 11.015625 -3.171875 14.753906 0.617188 18.339844 1.238281 C 19.371094 1.289062 19.707031 0.851562 19.8125 0.4375 C 18.574219 -0.488281 16.199219 -2.398438 14.421875 -7.273438 Z M 14.421875 -7.273438 "/></g></g></g><g fill="#ffffff" fill-opacity="1"><g transform="translate(203.847127, 153.999732)"><g><path d="M 1.417969 -2.992188 C 0.929688 -1.265625 4.28125 0.464844 7.816406 0.464844 C 12.742188 0.464844 15.710938 -1.625 15.710938 -5.003906 C 15.710938 -7.917969 13.183594 -9.542969 10.1875 -11.425781 C 7.867188 -12.871094 6.605469 -13.59375 6.605469 -15.296875 C 6.605469 -16.484375 7.609375 -17.386719 9.492188 -17.386719 C 12.046875 -17.386719 13.335938 -15.96875 13.078125 -12.203125 C 13.054688 -11.117188 14.03125 -11.324219 14.03125 -11.324219 L 15.324219 -15.503906 C 15.863281 -17.285156 12.304688 -18.496094 9.390625 -18.496094 C 4.902344 -18.496094 2.117188 -16.378906 2.117188 -13.644531 C 2.117188 -11.351562 4.515625 -9.726562 7.585938 -7.765625 C 9.726562 -6.449219 11.246094 -5.261719 11.246094 -3.484375 C 11.246094 -1.339844 9.441406 -0.671875 7.917969 -0.671875 C 4.773438 -0.671875 3.507812 -2.476562 3.742188 -6.679688 C 3.742188 -7.738281 2.890625 -7.609375 2.890625 -7.609375 Z M 1.417969 -2.992188 "/></g></g></g><g fill="#ffffff" fill-opacity="1"><g transform="translate(221.104402, 153.999732)"><g><path d="M 20.429688 -0.980469 C 19.683594 -1.160156 19.089844 -1.339844 19.089844 -3.40625 L 19.089844 -14.652344 C 19.089844 -16.714844 19.683594 -16.894531 20.429688 -17.078125 C 21.308594 -17.308594 20.972656 -18.132812 20.921875 -18.132812 C 20.535156 -18.109375 19.785156 -18.058594 19.320312 -18.058594 L 14.421875 -18.058594 C 13.957031 -18.058594 13.207031 -18.109375 12.820312 -18.132812 C 12.769531 -18.132812 12.433594 -17.308594 13.3125 -17.078125 C 14.058594 -16.894531 14.652344 -16.714844 14.652344 -14.652344 L 14.652344 -10.265625 C 14.625 -9.929688 14.472656 -9.777344 14.109375 -9.777344 L 7.84375 -9.777344 C 7.480469 -9.777344 7.300781 -9.929688 7.300781 -10.292969 L 7.300781 -14.652344 C 7.300781 -16.714844 7.867188 -16.894531 8.640625 -17.078125 C 9.492188 -17.308594 9.183594 -18.132812 9.132812 -18.132812 C 8.746094 -18.109375 7.972656 -18.058594 7.53125 -18.058594 L 2.632812 -18.058594 C 2.167969 -18.058594 1.417969 -18.109375 1.03125 -18.132812 C 0.953125 -18.132812 0.644531 -17.308594 1.496094 -17.078125 C 2.269531 -16.894531 2.835938 -16.714844 2.835938 -14.652344 L 2.835938 -3.40625 C 2.835938 -1.339844 2.269531 -1.160156 1.496094 -0.980469 C 0.644531 -0.75 0.953125 0.078125 1.03125 0.078125 C 1.417969 0.0507812 2.167969 0 2.632812 0 L 7.53125 0 C 7.972656 0 8.746094 0.0507812 9.132812 0.078125 C 9.183594 0.078125 9.492188 -0.75 8.640625 -0.980469 C 7.867188 -1.160156 7.300781 -1.339844 7.300781 -3.40625 L 7.300781 -8.203125 C 7.300781 -8.5625 7.480469 -8.691406 7.84375 -8.691406 L 14.109375 -8.691406 C 14.472656 -8.691406 14.625 -8.5625 14.652344 -8.203125 L 14.652344 -3.40625 C 14.652344 -1.339844 14.058594 -1.160156 13.3125 -0.980469 C 12.433594 -0.75 12.769531 0.078125 12.820312 0.078125 C 13.207031 0.0507812 13.957031 0 14.421875 0 L 19.320312 0 C 19.785156 0 20.535156 0.0507812 20.921875 0.078125 C 20.972656 0.078125 21.308594 -0.75 20.429688 -0.980469 Z M 20.429688 -0.980469 "/></g></g></g><g fill="#ffffff" fill-opacity="1"><g transform="translate(243.752938, 153.999732)"><g><path d="M 10.265625 0.464844 C 16.484375 0.464844 21.023438 -3.636719 21.023438 -9.390625 C 21.023438 -14.652344 17.050781 -18.496094 11.375 -18.496094 C 5.441406 -18.496094 0.851562 -14.316406 0.851562 -8.691406 C 0.851562 -3.351562 4.71875 0.464844 10.265625 0.464844 Z M 12.203125 -0.902344 C 8.382812 -0.902344 5.367188 -8.125 5.367188 -12.046875 C 5.367188 -15.039062 6.964844 -17.128906 9.542969 -17.128906 C 13.515625 -17.128906 16.40625 -10.007812 16.40625 -6.113281 C 16.40625 -2.761719 14.730469 -0.902344 12.203125 -0.902344 Z M 12.203125 -0.902344 "/></g></g></g><g fill="#ffffff" fill-opacity="1"><g transform="translate(266.324085, 153.999732)"><g><path d="M 9.234375 -7.402344 C 15.039062 -7.09375 17.4375 -9.441406 17.4375 -12.847656 C 17.4375 -16.378906 14.882812 -18.238281 9.648438 -18.238281 C 7.171875 -18.238281 4.773438 -18.082031 2.632812 -18.058594 C 2.167969 -18.058594 1.417969 -18.109375 1.007812 -18.109375 C 0.953125 -18.109375 0.644531 -17.308594 1.496094 -17.078125 C 2.269531 -16.894531 2.835938 -16.714844 2.835938 -14.652344 L 2.835938 -3.40625 C 2.835938 -1.339844 2.269531 -1.160156 1.496094 -0.980469 C 0.644531 -0.75 0.953125 0.078125 1.03125 0.078125 C 1.417969 0.0507812 2.167969 0 2.632812 0 L 7.609375 0 C 8.203125 0 9.183594 0.0507812 9.699219 0.078125 C 9.777344 0.078125 10.164062 -0.75 9.054688 -0.980469 C 8.046875 -1.160156 7.300781 -1.339844 7.300781 -3.40625 L 7.300781 -16.148438 C 7.300781 -16.972656 7.480469 -17.15625 8.175781 -17.15625 L 9.132812 -17.15625 C 11.296875 -17.128906 12.640625 -15.039062 12.640625 -12.691406 C 12.640625 -9.800781 11.425781 -8.589844 9.003906 -8.511719 L 8.203125 -8.511719 C 7.765625 -8.488281 7.765625 -7.996094 8.023438 -7.453125 Z M 9.234375 -7.402344 "/></g></g></g></svg>