<svg xmlns="http://www.w3.org/2000/svg" xmlns:xlink="http://www.w3.org/1999/xlink" width="500" zoomAndPan="magnify" viewBox="0 0 375 374.999991" height="500" preserveAspectRatio="xMidYMid meet" version="1.0"><defs><g/><clipPath id="id1"><path d="M 12 112.5 L 120.75 112.5 L 120.75 210 L 12 210 Z M 12 112.5 " clip-rule="nonzero"/></clipPath><clipPath id="id2"><path d="M 12 113 L 120.75 113 L 120.75 210.75 L 12 210.75 Z M 12 113 " clip-rule="nonzero"/></clipPath></defs><path fill="#000000" d="M 60.632812 154.019531 C 47 144.113281 37.03125 141.972656 37.988281 138.617188 C 38.730469 135.992188 40.972656 137.253906 42.554688 130.324219 C 44.070312 123.667969 38.617188 116.867188 32.035156 115.453125 C 25.585938 113.570312 17.480469 116.621094 15.476562 123.445312 C 13.039062 130.199219 17.003906 138.246094 23.71875 140.648438 C 31.390625 144.132812 41.527344 145.917969 50.226562 157.167969 L 56.90625 165.804688 L 99.023438 195.691406 C 104.46875 199.035156 111.714844 201.039062 118.613281 196.707031 L 60.632812 154.023438 Z M 35.210938 121.957031 C 40.941406 127.714844 37.445312 137.894531 29.792969 137.878906 C 22.753906 138.285156 16.34375 129.714844 20.363281 123.34375 C 23.179688 117.976562 31.285156 118.015625 35.210938 121.957031 Z M 35.210938 121.957031 " fill-opacity="1" fill-rule="nonzero"/><g clip-path="url(#id1)"><path stroke-linecap="butt" transform="matrix(0.000000000000000015, -0.246986, 0.246543, 0.000000000000000015, -36.86428, 277.770714)" fill="none" stroke-linejoin="miter" d="M 501.045971 395.457203 C 541.154571 340.161258 549.821571 299.727088 563.407252 303.608895 C 574.035398 306.619276 568.926929 315.713796 596.98397 322.13066 C 623.933912 328.278175 651.469036 306.159797 657.194317 279.462471 C 664.817481 253.303845 652.465424 220.427316 624.835407 212.299287 C 597.490072 202.412562 564.909743 218.494334 555.183091 245.73036 C 541.075492 276.848193 533.84772 317.963659 488.298522 353.248493 L 453.330022 380.341922 L 332.324148 551.173121 C 318.785914 573.259811 310.672463 602.650635 328.212068 630.631334 L 501.030155 395.457203 Z M 630.861186 292.343733 C 607.548854 315.587043 566.333155 301.406564 566.396418 270.367952 C 564.751586 241.816865 599.451218 215.81668 625.246615 232.120269 C 646.977379 243.543873 646.819222 276.420402 630.861186 292.343733 Z M 630.861186 292.343733 " stroke="#000000" stroke-width="7.541" stroke-opacity="1" stroke-miterlimit="4"/></g><path fill="#000000" d="M 61.003906 169.289062 C 47.347656 179.164062 37.378906 181.28125 38.324219 184.640625 C 39.066406 187.265625 41.308594 186.011719 42.875 192.945312 C 44.378906 199.605469 38.90625 206.394531 32.324219 207.789062 C 25.867188 209.65625 17.769531 206.589844 15.78125 199.761719 C 13.359375 193.003906 17.339844 184.964844 24.058594 182.574219 C 31.742188 179.113281 41.882812 177.347656 50.605469 166.117188 L 57.304688 157.496094 L 99.492188 127.699219 C 104.945312 124.371094 112.191406 122.382812 119.078125 126.730469 L 61.007812 169.289062 Z M 35.511719 201.292969 C 41.253906 195.550781 37.78125 185.359375 30.132812 185.359375 C 23.09375 184.9375 16.660156 193.496094 20.664062 199.875 C 23.472656 205.246094 31.578125 205.226562 35.511719 201.292969 Z M 35.511719 201.292969 " fill-opacity="1" fill-rule="nonzero"/><g clip-path="url(#id2)"><path stroke-linecap="butt" transform="matrix(0.000000000000000015, -0.246986, 0.246543, 0.000000000000000015, -36.86428, 277.770714)" fill="none" stroke-linejoin="miter" d="M 439.222423 396.962394 C 399.240349 341.571384 390.668243 301.137214 377.066746 304.971489 C 366.4386 307.98187 371.515438 317.076389 343.442581 323.429878 C 316.476823 329.52986 288.989147 307.332261 283.342944 280.634935 C 275.783042 254.444621 288.198362 221.59978 315.844195 213.535128 C 343.205346 203.711779 375.754044 219.856928 385.433248 247.108798 C 399.445953 278.274163 406.594647 319.405473 452.064767 354.785372 L 486.970003 381.958021 L 607.612116 553.074414 C 621.087088 575.192792 629.137276 604.583617 611.534408 632.516784 L 439.222423 396.978238 Z M 309.644443 293.563729 C 332.893513 316.854572 374.156659 302.769158 374.156659 271.746389 C 375.864754 243.195302 341.212568 217.100052 315.38554 233.340266 C 293.638961 244.732181 293.718039 277.60871 309.644443 293.563729 Z M 309.644443 293.563729 " stroke="#000000" stroke-width="7.541" stroke-opacity="1" stroke-miterlimit="4"/></g><g fill="#000000" fill-opacity="1"><g transform="translate(113.188194, 166.087079)"><g><path d="M 26.734375 -27.847656 L 18.472656 -10.117188 L 10.257812 -27.847656 L 2.554688 -27.847656 L 2.554688 0 L 9.65625 0 L 9.65625 -14.992188 L 16.570312 0 L 20.375 0 L 27.292969 -14.898438 L 27.292969 0 L 34.394531 0 L 34.394531 -27.847656 Z M 26.734375 -27.847656 "/></g></g></g><g fill="#000000" fill-opacity="1"><g transform="translate(150.127626, 166.087079)"><g><path d="M 15.875 0.371094 C 23.765625 0.371094 30.171875 -6.035156 30.171875 -13.925781 C 30.171875 -21.816406 23.765625 -28.21875 15.875 -28.21875 C 7.9375 -28.21875 1.578125 -21.816406 1.578125 -13.925781 C 1.578125 -6.035156 7.9375 0.371094 15.875 0.371094 Z M 15.875 -6.589844 C 11.648438 -6.589844 8.492188 -9.699219 8.492188 -13.925781 C 8.492188 -18.148438 11.648438 -21.257812 15.875 -21.257812 C 20.050781 -21.257812 23.207031 -18.148438 23.207031 -13.925781 C 23.207031 -9.699219 20.050781 -6.589844 15.875 -6.589844 Z M 15.875 -6.589844 "/></g></g></g><g fill="#000000" fill-opacity="1"><g transform="translate(181.823146, 166.087079)"><g><path d="M 14.34375 0.371094 C 21.027344 0.371094 26.269531 -3.667969 26.269531 -8.867188 L 26.269531 -27.847656 L 19.167969 -27.847656 L 19.167969 -10.210938 C 19.167969 -7.75 17.035156 -5.800781 14.34375 -5.800781 C 11.648438 -5.800781 9.515625 -7.75 9.515625 -10.210938 L 9.515625 -27.847656 L 2.414062 -27.847656 L 2.414062 -8.867188 C 2.414062 -3.667969 7.660156 0.371094 14.34375 0.371094 Z M 14.34375 0.371094 "/></g></g></g><g fill="#000000" fill-opacity="1"><g transform="translate(210.502255, 166.087079)"><g><path d="M 11.648438 0.371094 C 16.988281 0.371094 21.582031 -2.738281 21.582031 -8.078125 C 21.582031 -18.660156 8.957031 -16.011719 8.957031 -20.238281 C 8.957031 -21.445312 9.886719 -22 11 -22 C 12.394531 -22 13.925781 -21.164062 15.410156 -19.585938 L 20.050781 -24.089844 C 17.871094 -26.640625 14.574219 -28.21875 11.09375 -28.21875 C 6.683594 -28.21875 1.808594 -25.667969 1.808594 -19.726562 C 1.808594 -10.070312 14.480469 -12.394531 14.480469 -8.167969 C 14.480469 -7.054688 13.554688 -6.265625 11.742188 -6.265625 C 9.328125 -6.265625 7.378906 -7.566406 6.40625 -9.65625 L 0.601562 -6.035156 C 2.460938 -2.507812 6.542969 0.371094 11.648438 0.371094 Z M 11.648438 0.371094 "/></g></g></g><g fill="#000000" fill-opacity="1"><g transform="translate(233.102138, 166.087079)"><g><path d="M 20.285156 -27.847656 L -0.417969 -27.847656 L -0.417969 -21.675781 L 6.40625 -21.675781 L 6.40625 0 L 13.460938 0 L 13.460938 -21.675781 L 20.285156 -21.675781 Z M 20.285156 -27.847656 "/></g></g></g><g fill="#000000" fill-opacity="1"><g transform="translate(252.964045, 166.087079)"><g><path d="M 19.632812 0 L 27.246094 0 L 17.171875 -27.847656 L 9.238281 -27.847656 L -0.835938 0 L 6.824219 0 L 8.355469 -4.875 L 18.101562 -4.875 Z M 10.164062 -10.628906 L 13.226562 -20.46875 L 16.339844 -10.628906 Z M 10.164062 -10.628906 "/></g></g></g><g fill="#000000" fill-opacity="1"><g transform="translate(279.415654, 166.087079)"><g><path d="M 15.875 0.371094 C 21.398438 0.371094 26.226562 -2.785156 28.59375 -7.425781 L 22.464844 -10.535156 C 21.257812 -8.121094 18.84375 -6.589844 15.875 -6.589844 C 11.648438 -6.589844 8.492188 -9.699219 8.492188 -13.925781 C 8.492188 -18.148438 11.648438 -21.257812 15.875 -21.257812 C 18.84375 -21.257812 21.257812 -19.726562 22.464844 -17.3125 L 28.59375 -20.421875 C 26.226562 -25.0625 21.398438 -28.21875 15.875 -28.21875 C 7.9375 -28.21875 1.578125 -21.816406 1.578125 -13.925781 C 1.578125 -6.035156 7.9375 0.371094 15.875 0.371094 Z M 15.875 0.371094 "/></g></g></g><g fill="#000000" fill-opacity="1"><g transform="translate(309.115702, 166.087079)"><g><path d="M 19.679688 -27.847656 L 19.679688 -17.035156 L 9.65625 -17.035156 L 9.65625 -27.847656 L 2.554688 -27.847656 L 2.554688 0 L 9.65625 0 L 9.65625 -10.859375 L 19.679688 -10.859375 L 19.679688 0 L 26.78125 0 L 26.78125 -27.847656 Z M 19.679688 -27.847656 "/></g></g></g><g fill="#000000" fill-opacity="1"><g transform="translate(338.490898, 166.087079)"><g><path d="M 20.050781 -21.675781 L 20.050781 -27.847656 L 2.785156 -27.847656 L 2.785156 0 L 20.050781 0 L 20.050781 -6.171875 L 9.886719 -6.171875 L 9.886719 -10.859375 L 18.472656 -10.859375 L 18.472656 -16.988281 L 9.886719 -16.988281 L 9.886719 -21.675781 Z M 20.050781 -21.675781 "/></g></g></g><g fill="#188f0e" fill-opacity="1"><g transform="translate(116.586632, 193.087077)"><g><path d="M 3.183594 0 C 5.804688 0.03125 8.800781 0.21875 11.796875 0.21875 C 18.382812 0.21875 21.84375 -2.121094 21.84375 -6.304688 C 21.84375 -9.957031 18.816406 -11.734375 14.386719 -11.953125 C 18.164062 -12.359375 20.066406 -14.074219 20.066406 -17.132812 C 20.066406 -19.660156 17.726562 -22.09375 11.671875 -22.09375 C 9.769531 -22.09375 5.492188 -21.875 3.152344 -21.84375 C 2.621094 -21.84375 1.714844 -21.90625 1.21875 -21.90625 C 1.15625 -21.90625 0.78125 -20.941406 1.808594 -20.660156 C 2.746094 -20.441406 3.433594 -20.222656 3.433594 -17.726562 L 3.433594 -4.121094 C 3.433594 -1.621094 2.746094 -1.40625 1.808594 -1.1875 C 0.78125 -0.90625 1.15625 0.0625 1.21875 0.0625 C 1.714844 0.0625 2.621094 0 3.183594 0 Z M 9.925781 -12.359375 C 9.175781 -12.109375 9.613281 -11.109375 9.707031 -11.109375 L 10.765625 -11.078125 C 14.230469 -11.046875 15.511719 -9.488281 15.511719 -6.085938 C 15.511719 -2.589844 13.449219 -1.09375 11.046875 -1.09375 L 9.988281 -1.09375 C 9.019531 -1.09375 8.832031 -1.375 8.832031 -2.402344 L 8.832031 -19.472656 C 8.832031 -20.410156 8.925781 -20.753906 9.738281 -20.753906 L 10.984375 -20.722656 C 12.546875 -20.691406 14.167969 -19.472656 14.167969 -16.414062 C 14.167969 -13.699219 13.042969 -12.828125 10.890625 -12.453125 Z M 9.925781 -12.359375 "/></g></g></g><g fill="#188f0e" fill-opacity="1"><g transform="translate(140.210381, 193.087077)"><g><path d="M 22.65625 -1.1875 C 22.0625 -1.40625 21.503906 -1.621094 20.566406 -3.902344 L 14.105469 -19.628906 C 13.292969 -21.65625 12.917969 -21.84375 10.453125 -21.84375 L 7.117188 -21.84375 C 6.929688 -21.84375 6.617188 -21.035156 7.457031 -20.816406 C 7.863281 -20.691406 8.019531 -20.628906 8.269531 -20.097656 L 8.332031 -19.941406 C 8.550781 -19.441406 8.707031 -18.539062 8.425781 -17.882812 L 2.777344 -3.902344 C 1.839844 -1.621094 1.28125 -1.40625 0.625 -1.1875 C -0.09375 -0.90625 0.1875 0.09375 0.25 0.09375 C 0.59375 0.0625 1.21875 0 1.589844 0 L 3.558594 0 C 4.277344 0 5.523438 0.0625 6.148438 0.09375 C 6.242188 0.09375 6.742188 -0.90625 5.335938 -1.1875 C 4.121094 -1.40625 3.246094 -1.621094 4.183594 -3.933594 L 4.648438 -5.085938 L 4.648438 -5.023438 C 4.804688 -5.304688 4.960938 -5.367188 5.304688 -5.367188 C 8.269531 -5.367188 10.734375 -5.398438 13.667969 -5.367188 C 13.949219 -5.367188 14.167969 -5.367188 14.355469 -5.148438 L 14.855469 -3.902344 C 15.820312 -1.621094 15.074219 -1.40625 13.949219 -1.1875 C 12.703125 -0.90625 13.136719 0.09375 13.230469 0.09375 C 13.792969 0.0625 14.886719 0 15.574219 0 L 21.75 0 C 22.09375 0 22.71875 0.0625 23.03125 0.09375 C 23.0625 0.09375 23.34375 -0.90625 22.65625 -1.1875 Z M 13.230469 -6.742188 C 10.578125 -6.679688 8.488281 -6.679688 5.835938 -6.710938 C 5.554688 -6.710938 5.429688 -6.992188 5.554688 -7.269531 L 5.523438 -7.269531 L 9.519531 -17.039062 L 13.542969 -7.148438 C 13.574219 -6.960938 13.449219 -6.742188 13.230469 -6.742188 Z M 13.230469 -6.742188 "/></g></g></g><g fill="#188f0e" fill-opacity="1"><g transform="translate(164.302224, 193.087077)"><g><path d="M 17.445312 -8.800781 C 17.289062 -9.300781 17.132812 -9.519531 16.601562 -9.519531 C 15.605469 -9.550781 14.667969 -9.582031 13.761719 -9.644531 L 13.886719 -9.769531 C 18.785156 -10.019531 21.59375 -12.078125 21.59375 -15.820312 C 21.59375 -20.003906 18.382812 -22.0625 11.796875 -22.0625 C 8.800781 -22.0625 5.804688 -21.875 3.183594 -21.84375 C 2.621094 -21.84375 1.714844 -21.90625 1.21875 -21.90625 C 1.15625 -21.90625 0.78125 -20.941406 1.808594 -20.660156 C 2.746094 -20.441406 3.433594 -20.222656 3.433594 -17.726562 L 3.433594 -4.121094 C 3.433594 -1.621094 2.746094 -1.40625 1.808594 -1.1875 C 0.78125 -0.90625 1.15625 0.09375 1.25 0.09375 C 1.714844 0.0625 2.621094 0 3.183594 0 L 9.113281 0 C 9.644531 0 10.578125 0.0625 11.046875 0.09375 C 11.109375 0.09375 11.484375 -0.90625 10.453125 -1.1875 C 9.519531 -1.40625 8.832031 -1.621094 8.832031 -4.121094 L 8.832031 -19.566406 C 8.832031 -20.503906 9.082031 -20.753906 9.894531 -20.753906 L 10.953125 -20.753906 C 13.605469 -20.722656 15.480469 -19.160156 15.480469 -15.636719 C 15.480469 -12.515625 14.261719 -10.953125 11.109375 -10.640625 L 10.078125 -10.609375 C 9.582031 -10.546875 9.519531 -10.171875 9.707031 -9.988281 L 10.453125 -9.832031 C 13.324219 -3.839844 17.851562 0.75 22.1875 1.496094 C 23.4375 1.558594 23.84375 1.03125 23.96875 0.53125 C 22.46875 -0.59375 19.597656 -2.902344 17.445312 -8.800781 Z M 17.445312 -8.800781 "/></g></g></g><g fill="#188f0e" fill-opacity="1"><g transform="translate(188.830968, 193.087077)"><g><path d="M 3.183594 0 C 5.804688 0.03125 8.800781 0.21875 11.796875 0.21875 C 18.382812 0.21875 21.84375 -2.121094 21.84375 -6.304688 C 21.84375 -9.957031 18.816406 -11.734375 14.386719 -11.953125 C 18.164062 -12.359375 20.066406 -14.074219 20.066406 -17.132812 C 20.066406 -19.660156 17.726562 -22.09375 11.671875 -22.09375 C 9.769531 -22.09375 5.492188 -21.875 3.152344 -21.84375 C 2.621094 -21.84375 1.714844 -21.90625 1.21875 -21.90625 C 1.15625 -21.90625 0.78125 -20.941406 1.808594 -20.660156 C 2.746094 -20.441406 3.433594 -20.222656 3.433594 -17.726562 L 3.433594 -4.121094 C 3.433594 -1.621094 2.746094 -1.40625 1.808594 -1.1875 C 0.78125 -0.90625 1.15625 0.0625 1.21875 0.0625 C 1.714844 0.0625 2.621094 0 3.183594 0 Z M 9.925781 -12.359375 C 9.175781 -12.109375 9.613281 -11.109375 9.707031 -11.109375 L 10.765625 -11.078125 C 14.230469 -11.046875 15.511719 -9.488281 15.511719 -6.085938 C 15.511719 -2.589844 13.449219 -1.09375 11.046875 -1.09375 L 9.988281 -1.09375 C 9.019531 -1.09375 8.832031 -1.375 8.832031 -2.402344 L 8.832031 -19.472656 C 8.832031 -20.410156 8.925781 -20.753906 9.738281 -20.753906 L 10.984375 -20.722656 C 12.546875 -20.691406 14.167969 -19.472656 14.167969 -16.414062 C 14.167969 -13.699219 13.042969 -12.828125 10.890625 -12.453125 Z M 9.925781 -12.359375 "/></g></g></g><g fill="#188f0e" fill-opacity="1"><g transform="translate(212.454719, 193.087077)"><g><path d="M 12.828125 0 C 16.695312 0 17.945312 0.4375 18.632812 0.4375 C 19.097656 0.46875 19.441406 0.15625 19.410156 -0.5 C 19.285156 -2.652344 19.441406 -4.898438 19.847656 -7.613281 C 19.878906 -7.707031 17.851562 -8.019531 17.539062 -6.617188 C 16.976562 -3.183594 16.632812 -2.371094 15.945312 -1.902344 C 15.167969 -1.40625 13.792969 -1.3125 10.265625 -1.3125 C 9.082031 -1.3125 8.800781 -1.3125 8.800781 -2.527344 L 8.800781 -9.925781 C 8.800781 -10.296875 8.925781 -10.859375 9.488281 -10.859375 C 9.832031 -10.859375 10.859375 -10.859375 11.734375 -10.796875 C 12.859375 -10.703125 12.980469 -10.484375 13.605469 -8.332031 C 13.824219 -7.550781 15.011719 -7.769531 15.011719 -7.769531 C 14.699219 -9.832031 14.511719 -12.917969 14.855469 -15.105469 C 14.855469 -15.105469 13.667969 -15.542969 13.417969 -14.542969 C 12.949219 -12.578125 12.796875 -12.359375 11.703125 -12.265625 C 10.765625 -12.203125 9.738281 -12.171875 9.488281 -12.171875 C 8.925781 -12.171875 8.800781 -12.734375 8.800781 -13.105469 L 8.800781 -19.410156 C 8.800781 -20.066406 9.050781 -20.535156 9.800781 -20.535156 C 13.511719 -20.535156 14.855469 -20.472656 15.542969 -19.878906 C 16.195312 -19.347656 16.507812 -18.132812 16.914062 -15.355469 C 17.164062 -13.980469 19.035156 -14.230469 19.035156 -14.230469 C 18.570312 -16.945312 18.414062 -19.285156 18.601562 -21.441406 C 18.632812 -22.0625 18.351562 -22.28125 17.914062 -22.28125 C 17.132812 -22.3125 15.730469 -21.84375 12.671875 -21.84375 L 3.183594 -21.84375 C 2.621094 -21.84375 1.714844 -21.90625 1.25 -21.9375 C 1.15625 -21.9375 0.78125 -20.941406 1.808594 -20.660156 C 2.746094 -20.441406 3.433594 -20.222656 3.433594 -17.726562 L 3.433594 -4.121094 C 3.433594 -1.621094 2.746094 -1.40625 1.808594 -1.1875 C 0.78125 -0.90625 1.15625 0.09375 1.25 0.09375 C 1.714844 0.0625 2.621094 0 3.183594 0 Z M 12.828125 0 "/></g></g></g><g fill="#188f0e" fill-opacity="1"><g transform="translate(234.081224, 193.087077)"><g><path d="M 17.445312 -8.800781 C 17.289062 -9.300781 17.132812 -9.519531 16.601562 -9.519531 C 15.605469 -9.550781 14.667969 -9.582031 13.761719 -9.644531 L 13.886719 -9.769531 C 18.785156 -10.019531 21.59375 -12.078125 21.59375 -15.820312 C 21.59375 -20.003906 18.382812 -22.0625 11.796875 -22.0625 C 8.800781 -22.0625 5.804688 -21.875 3.183594 -21.84375 C 2.621094 -21.84375 1.714844 -21.90625 1.21875 -21.90625 C 1.15625 -21.90625 0.78125 -20.941406 1.808594 -20.660156 C 2.746094 -20.441406 3.433594 -20.222656 3.433594 -17.726562 L 3.433594 -4.121094 C 3.433594 -1.621094 2.746094 -1.40625 1.808594 -1.1875 C 0.78125 -0.90625 1.15625 0.09375 1.25 0.09375 C 1.714844 0.0625 2.621094 0 3.183594 0 L 9.113281 0 C 9.644531 0 10.578125 0.0625 11.046875 0.09375 C 11.109375 0.09375 11.484375 -0.90625 10.453125 -1.1875 C 9.519531 -1.40625 8.832031 -1.621094 8.832031 -4.121094 L 8.832031 -19.566406 C 8.832031 -20.503906 9.082031 -20.753906 9.894531 -20.753906 L 10.953125 -20.753906 C 13.605469 -20.722656 15.480469 -19.160156 15.480469 -15.636719 C 15.480469 -12.515625 14.261719 -10.953125 11.109375 -10.640625 L 10.078125 -10.609375 C 9.582031 -10.546875 9.519531 -10.171875 9.707031 -9.988281 L 10.453125 -9.832031 C 13.324219 -3.839844 17.851562 0.75 22.1875 1.496094 C 23.4375 1.558594 23.84375 1.03125 23.96875 0.53125 C 22.46875 -0.59375 19.597656 -2.902344 17.445312 -8.800781 Z M 17.445312 -8.800781 "/></g></g></g><g fill="#188f0e" fill-opacity="1"><g transform="translate(258.609974, 193.087077)"><g><path d="M 1.714844 -3.621094 C 1.125 -1.527344 5.179688 0.5625 9.457031 0.5625 C 15.417969 0.5625 19.003906 -1.964844 19.003906 -6.054688 C 19.003906 -9.582031 15.945312 -11.546875 12.328125 -13.824219 C 9.519531 -15.574219 7.988281 -16.445312 7.988281 -18.507812 C 7.988281 -19.941406 9.207031 -21.035156 11.484375 -21.035156 C 14.574219 -21.035156 16.132812 -19.316406 15.820312 -14.761719 C 15.789062 -13.449219 16.976562 -13.699219 16.976562 -13.699219 L 18.539062 -18.753906 C 19.191406 -20.910156 14.886719 -22.375 11.359375 -22.375 C 5.929688 -22.375 2.558594 -19.816406 2.558594 -16.507812 C 2.558594 -13.730469 5.460938 -11.765625 9.175781 -9.394531 C 11.765625 -7.800781 13.605469 -6.367188 13.605469 -4.214844 C 13.605469 -1.621094 11.421875 -0.8125 9.582031 -0.8125 C 5.773438 -0.8125 4.246094 -2.996094 4.523438 -8.082031 C 4.523438 -9.363281 3.496094 -9.207031 3.496094 -9.207031 Z M 1.714844 -3.621094 "/></g></g></g><g fill="#188f0e" fill-opacity="1"><g transform="translate(279.48751, 193.087077)"><g><path d="M 24.714844 -1.1875 C 23.8125 -1.40625 23.09375 -1.621094 23.09375 -4.121094 L 23.09375 -17.726562 C 23.09375 -20.222656 23.8125 -20.441406 24.714844 -20.660156 C 25.777344 -20.941406 25.371094 -21.9375 25.308594 -21.9375 C 24.839844 -21.90625 23.9375 -21.84375 23.375 -21.84375 L 17.445312 -21.84375 C 16.882812 -21.84375 15.976562 -21.90625 15.511719 -21.9375 C 15.449219 -21.9375 15.042969 -20.941406 16.101562 -20.660156 C 17.007812 -20.441406 17.726562 -20.222656 17.726562 -17.726562 L 17.726562 -12.421875 C 17.695312 -12.015625 17.507812 -11.828125 17.070312 -11.828125 L 9.488281 -11.828125 C 9.050781 -11.828125 8.832031 -12.015625 8.832031 -12.453125 L 8.832031 -17.726562 C 8.832031 -20.222656 9.519531 -20.441406 10.453125 -20.660156 C 11.484375 -20.941406 11.109375 -21.9375 11.046875 -21.9375 C 10.578125 -21.90625 9.644531 -21.84375 9.113281 -21.84375 L 3.183594 -21.84375 C 2.621094 -21.84375 1.714844 -21.90625 1.25 -21.9375 C 1.15625 -21.9375 0.78125 -20.941406 1.808594 -20.660156 C 2.746094 -20.441406 3.433594 -20.222656 3.433594 -17.726562 L 3.433594 -4.121094 C 3.433594 -1.621094 2.746094 -1.40625 1.808594 -1.1875 C 0.78125 -0.90625 1.15625 0.09375 1.25 0.09375 C 1.714844 0.0625 2.621094 0 3.183594 0 L 9.113281 0 C 9.644531 0 10.578125 0.0625 11.046875 0.09375 C 11.109375 0.09375 11.484375 -0.90625 10.453125 -1.1875 C 9.519531 -1.40625 8.832031 -1.621094 8.832031 -4.121094 L 8.832031 -9.925781 C 8.832031 -10.359375 9.050781 -10.515625 9.488281 -10.515625 L 17.070312 -10.515625 C 17.507812 -10.515625 17.695312 -10.359375 17.726562 -9.925781 L 17.726562 -4.121094 C 17.726562 -1.621094 17.007812 -1.40625 16.101562 -1.1875 C 15.042969 -0.90625 15.449219 0.09375 15.511719 0.09375 C 15.976562 0.0625 16.882812 0 17.445312 0 L 23.375 0 C 23.9375 0 24.839844 0.0625 25.308594 0.09375 C 25.371094 0.09375 25.777344 -0.90625 24.714844 -1.1875 Z M 24.714844 -1.1875 "/></g></g></g><g fill="#188f0e" fill-opacity="1"><g transform="translate(306.887296, 193.087077)"><g><path d="M 12.421875 0.5625 C 19.941406 0.5625 25.433594 -4.398438 25.433594 -11.359375 C 25.433594 -17.726562 20.628906 -22.375 13.761719 -22.375 C 6.585938 -22.375 1.03125 -17.320312 1.03125 -10.515625 C 1.03125 -4.058594 5.710938 0.5625 12.421875 0.5625 Z M 14.761719 -1.09375 C 10.140625 -1.09375 6.492188 -9.832031 6.492188 -14.574219 C 6.492188 -18.195312 8.425781 -20.722656 11.546875 -20.722656 C 16.351562 -20.722656 19.847656 -12.109375 19.847656 -7.394531 C 19.847656 -3.339844 17.820312 -1.09375 14.761719 -1.09375 Z M 14.761719 -1.09375 "/></g></g></g><g fill="#188f0e" fill-opacity="1"><g transform="translate(334.193458, 193.087077)"><g><path d="M 11.171875 -8.957031 C 18.195312 -8.582031 21.097656 -11.421875 21.097656 -15.542969 C 21.097656 -19.816406 18.007812 -22.0625 11.671875 -22.0625 C 8.675781 -22.0625 5.773438 -21.875 3.183594 -21.84375 C 2.621094 -21.84375 1.714844 -21.90625 1.21875 -21.90625 C 1.15625 -21.90625 0.78125 -20.941406 1.808594 -20.660156 C 2.746094 -20.441406 3.433594 -20.222656 3.433594 -17.726562 L 3.433594 -4.121094 C 3.433594 -1.621094 2.746094 -1.40625 1.808594 -1.1875 C 0.78125 -0.90625 1.15625 0.09375 1.25 0.09375 C 1.714844 0.0625 2.621094 0 3.183594 0 L 9.207031 0 C 9.925781 0 11.109375 0.0625 11.734375 0.09375 C 11.828125 0.09375 12.296875 -0.90625 10.953125 -1.1875 C 9.738281 -1.40625 8.832031 -1.621094 8.832031 -4.121094 L 8.832031 -19.535156 C 8.832031 -20.535156 9.050781 -20.753906 9.894531 -20.753906 L 11.046875 -20.753906 C 13.667969 -20.722656 15.292969 -18.195312 15.292969 -15.355469 C 15.292969 -11.859375 13.824219 -10.390625 10.890625 -10.296875 L 9.925781 -10.296875 C 9.394531 -10.265625 9.394531 -9.675781 9.707031 -9.019531 Z M 11.171875 -8.957031 "/></g></g></g></svg>