<svg xmlns="http://www.w3.org/2000/svg" xmlns:xlink="http://www.w3.org/1999/xlink" width="284.403" height="151.41" viewBox="0 0 284.403 151.41">
  <defs>
    <clipPath id="clip-path">
      <path id="Path_26" data-name="Path 26" d="M55.492,74.1H244.379v70.078H55.492Zm0,0"/>
    </clipPath>
    <clipPath id="clip-path-2">
      <path id="Path_28" data-name="Path 28" d="M55.492,167.535H244.379v57.973H55.492Zm0,0"/>
    </clipPath>
  </defs>
  <g id="Group_120" data-name="Group 120" transform="translate(-7.882 -74.098)">
    <path id="Path_22" data-name="Path 22" d="M162.473,177.844c-3.2,4.219-11.352,1.367-11.352,1.367s-8.152,2.852-11.351-1.367-8.793-4.43-8.793-4.43.574,6.824,1.488,11.953,6.527,9.348,6.527,9.348-3.445-3.988-2.988-7.524a22.025,22.025,0,0,0,.113-5.7s1.141,1.481,1.141,6.043,5.367,8.891,5.367,8.891c-2.281-3.192-.832-9.692-.832-9.692s-.879,6.387,1.863,8.207,7.465,2.739,7.465,2.739,4.731-.91,7.469-2.739,1.863-8.207,1.863-8.207,1.449,6.5-.836,9.692c0,0,5.367-4.332,5.367-8.891s1.145-6.043,1.145-6.043a22.025,22.025,0,0,0,.113,5.7c.457,3.536-2.988,7.524-2.988,7.524s5.613-4.215,6.531-9.348,1.481-11.953,1.481-11.953-5.594.211-8.793,4.43"/>
    <path id="Path_23" data-name="Path 23" d="M173.793,163.9a2.87,2.87,0,0,0-3.527,1.9c.836-2.2,4.8-2.2,3.121,1.6s-10.887,1.593-16.219.074c-4.566-1.3-5.9.91-6.047,1.621-.141-.707-1.476-2.922-6.043-1.621-5.332,1.519-14.543,3.726-16.219-.074s2.286-3.8,3.121-1.6a2.876,2.876,0,0,0-3.531-1.9c-2.789.61-2.254,7.3,4.446,9.043,4.015,1.047,9.043.1,12.773-.378,4.809-.625,5.453.851,5.453.851s.649-1.476,5.457-.855c3.727.484,8.754,1.429,12.774.382,6.7-1.746,7.23-8.433,4.441-9.043"/>
    <path id="Path_24" data-name="Path 24" d="M174.832,130.3c-.113-7.067-1.6-17.555-8.109-22,0,0,1.144,10.715-2.168,16.187,0,0,3.425-14.594-3.883-18.922s-22.383.571-25.356.684-5.023-3.082-5.023-3.082a8.424,8.424,0,0,0,6.965,6.957,10.16,10.16,0,0,1-6.395-.8s-4.453,3.988-4.8,9.234-2.625,9.918-.8,19.036a3.518,3.518,0,0,0-2.172,1.062s2.7.422,3.617,4.184,1.676,7.066,1.676,7.066-.118-7.258,1.14-9.652-1.75-6.762-.722-10.184c.593-1.976,3.179-1.055,5.25.07l-1.5-11.64,3.277,12.719c.172.117.332.222.465.316a4.5,4.5,0,0,0,1.137.574l11.613,3.93a4.547,4.547,0,0,0,3.164-.1c3.156-1.289,10.1-4.34,12.453-7.125,3.082-3.648,7.422.457,8,3.875s-2.055,8.438-.687,11.4a9.083,9.083,0,0,1,.769,5.472,22.873,22.873,0,0,0,2.317-6.5c.339-2.847.226-4.73,1.71-4.59,0,0-1.828-1.109-1.941-8.179"/>
    <g id="Group_1" data-name="Group 1" clip-path="url(#clip-path)">
      <path id="Path_25" data-name="Path 25" d="M77.773,144.113a72.4,72.4,0,0,1,144.325,0h22.281l-19.149-3.4A75.861,75.861,0,0,0,74.652,140.6l-19.16,3.515H77.773"/>
    </g>
    <g id="Group_2" data-name="Group 2" clip-path="url(#clip-path-2)">
      <path id="Path_27" data-name="Path 27" d="M220.121,167.551a72.438,72.438,0,0,1-140.367,0H55.492l21.586,3.332a75.9,75.9,0,0,0,145.715,0l21.586-3.332H220.121"/>
    </g>
    <path id="Path_29" data-name="Path 29" d="M200.148,167.551a53.3,53.3,0,0,1-100.425,0H97.031a55.851,55.851,0,0,0,105.809,0h-2.692"/>
    <path id="Path_30" data-name="Path 30" d="M96.984,144.113h23.387L97.5,140.453a53.283,53.283,0,0,1,104.863-.035l-23.09,3.7h26.172a55.812,55.812,0,0,0-111.019,0h2.559"/>
    <g id="Group_5" data-name="Group 5">
      <g id="Group_4" data-name="Group 4" transform="translate(113.513 205.771)">
        <g id="Group_3" data-name="Group 3">
          <path id="Path_33" data-name="Path 33" d="M4-6.418,3.293-5.18l.59.34L1.543-.773l-.59-.34L.234.137l5.652,3.25L7.105,1.266,5.484.336l-.5.871L3.48.344l.879-1.527L6.141-.16l.719-1.246L5.078-2.43,5.82-3.723l1.5.859-.477.836,1.621.934L9.656-3.168Zm0,0"/>
        </g>
      </g>
    </g>
    <g id="Group_8" data-name="Group 8">
      <g id="Group_7" data-name="Group 7" transform="translate(121.976 210.447)">
        <g id="Group_6" data-name="Group 6">
          <path id="Path_34" data-name="Path 34" d="M.25.1l1.762.7L2.43.063A2.913,2.913,0,0,0,4.168,1.816c1.2.469,2.887.484,3.5-1.086C8.6-1.633,4.523-2.961,4.934-4c.137-.352.609-.375.9-.262a1.264,1.264,0,0,1,.828,1.676l1.82.719,1-2.527L7.75-5.07l-.434.8a2.426,2.426,0,0,0-1.7-1.855A2.462,2.462,0,0,0,2.371-4.9C1.359-2.336,5.355-1.145,5.047-.359c-.168.422-.7.3-1.055.164-.414-.184-1.2-.66-.871-1.5L1.25-2.437Zm0,0"/>
        </g>
      </g>
    </g>
    <g id="Group_11" data-name="Group 11">
      <g id="Group_10" data-name="Group 10" transform="translate(131.625 214.03)">
        <g id="Group_9" data-name="Group 9">
          <path id="Path_35" data-name="Path 35" d="M8.914-5.719,1.84-7.332,1.215-4.594l1.551.355.3-1.348.906.2L2.934-.8,2.07-1,1.75.4l3.922.895.32-1.4-.875-.2L6.16-4.883l.887.2L6.738-3.332l1.551.355Zm0,0"/>
        </g>
      </g>
    </g>
    <g id="Group_14" data-name="Group 14">
      <g id="Group_13" data-name="Group 13" transform="translate(141.608 216.112)">
        <g id="Group_12" data-name="Group 12">
          <path id="Path_36" data-name="Path 36" d="M.27.02,3.516.258C6.168.449,7.762-.855,7.938-3.312,8.09-5.375,6.719-7.09,4.109-7.277L.82-7.52.715-6.094l.668.047-.34,4.68L.375-1.414ZM3.254-1.2l.34-4.684L4-5.855C5.148-5.773,5.543-4.648,5.457-3.5c-.1,1.352-.648,2.383-1.793,2.32Zm0,0"/>
        </g>
      </g>
    </g>
    <g id="Group_17" data-name="Group 17">
      <g id="Group_16" data-name="Group 16" transform="translate(157.126 216.319)">
        <g id="Group_15" data-name="Group 15">
          <path id="Path_37" data-name="Path 37" d="M.766-5.27c.273-.391.621-.922,1.2-1.008.492-.07.922.027,1,.574.1.664-.969,1.277-1.629,2.066A5.631,5.631,0,0,0,.039-1.59L.266-.039,6.043-.887,5.711-3.164l-1.8.262.125.855L2.156-1.77A6.253,6.253,0,0,1,3.551-3.437C4.574-4.344,5.09-4.855,4.91-6.086A2.373,2.373,0,0,0,2.02-8.055,3.643,3.643,0,0,0-.566-6.32Zm0,0"/>
        </g>
      </g>
    </g>
    <g id="Group_20" data-name="Group 20">
      <g id="Group_19" data-name="Group 19" transform="translate(165.96 214.853)">
        <g id="Group_18" data-name="Group 18">
          <path id="Path_38" data-name="Path 38" d="M3.176-.773C5.059-1.309,5.7-3.023,5.043-5.332S3.012-8.867.973-8.285c-1.727.492-2.5,2.367-1.863,4.57C-.16-1.156,1.438-.277,3.176-.773ZM2.715-2.383C2.3-2.266,1.551-2.961,1.168-4.3c-.363-1.266-.113-2.2.273-2.3.508-.145,1.16.637,1.512,1.875C3.316-3.465,3.2-2.52,2.715-2.383Zm0,0"/>
        </g>
      </g>
    </g>
    <g id="Group_23" data-name="Group 23">
      <g id="Group_22" data-name="Group 22" transform="translate(174.614 212.201)">
        <g id="Group_21" data-name="Group 21">
          <path id="Path_39" data-name="Path 39" d="M-.641-5.289A1.982,1.982,0,0,1,.25-6.574c.457-.2.9-.211,1.117.293.27.613-.6,1.488-1.031,2.422A5.627,5.627,0,0,0-.379-1.547L.246-.109,5.6-2.441,4.68-4.551l-1.664.727.348.793-1.746.758A6.311,6.311,0,0,1,2.523-4.25c.754-1.141,1.117-1.77.621-2.91A2.374,2.374,0,0,0-.16-8.3,3.651,3.651,0,0,0-2.2-5.953Zm0,0"/>
        </g>
      </g>
    </g>
    <g id="Group_26" data-name="Group 26">
      <g id="Group_25" data-name="Group 25" transform="translate(182.726 208.459)">
        <g id="Group_24" data-name="Group 24">
          <path id="Path_40" data-name="Path 40" d="M-1.859-4.645l.672-.988L.859-2.18l-.934.551L.66-.391,4.383-2.6,3.648-3.832l-.863.512L-.336-8.586l-1.656.98A4.539,4.539,0,0,1-2.9-5.422Zm0,0"/>
        </g>
      </g>
    </g>
    <g id="Group_29" data-name="Group 29">
      <g id="Group_28" data-name="Group 28" transform="translate(7.444 161.501)">
        <g id="Group_27" data-name="Group 27">
          <path id="Path_41" data-name="Path 41" d="M12.672-9.168v6.891h-.981V0H17.23V-2.277h-.965V-9.992h.965V-12.25h-6.68L8.867-5.7,7.1-12.25H.457v2.258h.926v7.73H.438V0h4.75V-2.262h-1V-9.168h.07a11.89,11.89,0,0,0,.371,2.176L6.59,0h3.664l1.84-6.816c.121-.406.367-1.562.508-2.352Zm0,0"/>
        </g>
      </g>
    </g>
    <g id="Group_32" data-name="Group 32">
      <g id="Group_31" data-name="Group 31" transform="translate(26.963 161.501)">
        <g id="Group_30" data-name="Group 30">
          <path id="Path_42" data-name="Path 42" d="M6.539.316c3.961,0,6.168-2.418,6.168-6.379,0-3.945-2-6.523-6.293-6.523-3.629,0-6.152,2.613-6.152,6.4C.262-1.8,2.875.316,6.539.316Zm0-2.754c-1.125,0-1.945-1.453-1.945-3.75,0-2.172.734-3.715,1.8-3.7,1.348,0,1.926,1.7,1.926,3.824C8.324-3.891,7.641-2.437,6.539-2.437Zm0,0"/>
        </g>
      </g>
    </g>
    <g id="Group_35" data-name="Group 35">
      <g id="Group_34" data-name="Group 34" transform="translate(41.786 161.501)">
        <g id="Group_33" data-name="Group 33">
          <path id="Path_43" data-name="Path 43" d="M.262-12.25v2.277h.984v4.328C1.246-1.664,3.137.191,6.676.3c3.3,0,5.031-1.875,5.031-6.027V-9.992h.949V-12.25H7.465v2.313h.949v3.715c0,3.016-.7,3.437-1.77,3.437-1.125,0-1.754-.6-1.754-3.418V-9.992h.945V-12.25Zm0,0"/>
        </g>
      </g>
    </g>
    <g id="Group_38" data-name="Group 38">
      <g id="Group_37" data-name="Group 37" transform="translate(56.556 161.501)">
        <g id="Group_36" data-name="Group 36">
          <path id="Path_44" data-name="Path 44" d="M.438,0H3.5l.2-1.348A4.727,4.727,0,0,0,7.359.262c2.086,0,4.648-.98,4.648-3.715,0-4.117-6.941-3.7-6.941-5.5,0-.613.7-.93,1.207-.93A2.05,2.05,0,0,1,8.52-7.852h3.172v-4.4H8.676L8.5-10.777a3.924,3.924,0,0,0-3.664-1.789C3.121-12.566.668-11.391.668-8.8c0,4.469,6.727,3.891,6.727,5.258,0,.734-.875.875-1.488.875C5.172-2.7,3.7-2.945,3.7-4.418H.438Zm0,0"/>
        </g>
      </g>
    </g>
    <g id="Group_41" data-name="Group 41">
      <g id="Group_40" data-name="Group 40" transform="translate(70.854 161.501)">
        <g id="Group_39" data-name="Group 39">
          <path id="Path_45" data-name="Path 45" d="M12.023-12.25H.262V-7.7H2.84V-9.937H4.348v7.605H2.91V0H9.43V-2.332H7.977V-9.937H9.445V-7.7h2.578Zm0,0"/>
        </g>
      </g>
    </g>
    <g id="Group_44" data-name="Group 44">
      <g id="Group_43" data-name="Group 43" transform="translate(84.993 161.501)">
        <g id="Group_42" data-name="Group 42">
          <path id="Path_46" data-name="Path 46" d="M14.16,0V-2.3H12.934l-3.1-9.953H3.1v2.258H3.82L1.453-2.3H.262V0H5.836V-2.3H4.469l.367-1.191H8.43L8.8-2.3H7.133V0ZM5.484-5.59,6.625-9.375,7.781-5.59Zm0,0"/>
        </g>
      </g>
    </g>
    <g id="Group_47" data-name="Group 47">
      <g id="Group_46" data-name="Group 46" transform="translate(101.27 161.501)">
        <g id="Group_45" data-name="Group 45">
          <path id="Path_47" data-name="Path 47" d="M9.711-4.434c-.16.176-1.316,1.719-2.789,1.719-1.664,0-2.559-1.563-2.559-3.3,0-1.91.824-3.469,2.086-3.469,1.246,0,1.8,1.066,1.859,2.207h3.137V-12.25H8.691l-.4.981a3.237,3.237,0,0,0-2.7-1.191C3.3-12.461.262-10.043.262-6.012.262-2.1,2.734.281,6.449.281a7.186,7.186,0,0,0,5.312-2.473Zm0,0"/>
        </g>
      </g>
    </g>
    <g id="Group_50" data-name="Group 50">
      <g id="Group_49" data-name="Group 49" transform="translate(115.147 161.501)">
        <g id="Group_48" data-name="Group 48">
          <path id="Path_48" data-name="Path 48" d="M.438-12.25v2.313H1.4v7.625H.438V0h5.68V-2.312H5.031V-4.961H8.359v2.648H7.328V0h5.7V-2.312H12.008V-9.937h1.016V-12.25h-5.7v2.313H8.359v2.645H5.031V-9.937H6.117V-12.25Zm0,0"/>
        </g>
      </g>
    </g>
    <g id="Group_53" data-name="Group 53">
      <g id="Group_52" data-name="Group 52" transform="translate(130.461 161.501)">
        <g id="Group_51" data-name="Group 51">
          <path id="Path_49" data-name="Path 49" d="M.438-12.25v2.313H1.543v7.605H.438V0h10.57V-3.961H7.977v1.629h-2.8V-5.187H8.5V-7.52H5.172V-9.937h2.8v1.559h3.031V-12.25Zm0,0"/>
        </g>
      </g>
    </g>
    <g id="Group_56" data-name="Group 56">
      <g id="Group_55" data-name="Group 55" transform="translate(149.992 161.501)">
        <g id="Group_54" data-name="Group 54">
          <path id="Path_50" data-name="Path 50" d="M.438,0H7.1c3.383,0,4.77-1.086,4.77-3.559a2.94,2.94,0,0,0-2.316-2.98,2.427,2.427,0,0,0,1.719-2.715c0-1.91-1.383-3-4.293-3H.438v2.258H1.453v7.715H.438ZM5.082-9.937H6.188A1.149,1.149,0,0,1,7.344-8.66c0,.844-.262,1.352-1.191,1.352H5.082Zm0,7.66V-5.328H6.434A1.4,1.4,0,0,1,7.906-3.785,1.426,1.426,0,0,1,6.484-2.277Zm0,0" fill="#188f0e"/>
        </g>
      </g>
    </g>
    <g id="Group_59" data-name="Group 59">
      <g id="Group_58" data-name="Group 58" transform="translate(163.887 161.501)">
        <g id="Group_57" data-name="Group 57">
          <path id="Path_51" data-name="Path 51" d="M14.16,0V-2.3H12.934l-3.1-9.953H3.1v2.258H3.82L1.453-2.3H.262V0H5.836V-2.3H4.469l.367-1.191H8.43L8.8-2.3H7.133V0ZM5.484-5.59,6.625-9.375,7.781-5.59Zm0,0" fill="#188f0e"/>
        </g>
      </g>
    </g>
    <g id="Group_62" data-name="Group 62">
      <g id="Group_61" data-name="Group 61" transform="translate(180.164 161.501)">
        <g id="Group_60" data-name="Group 60">
          <path id="Path_52" data-name="Path 52" d="M.438-12.25v2.293h.98v7.645H.438V0H6.1V-2.312H5.031V-5.031c1.559,0,1.75.387,1.75,1.98C6.781-1,7.887.211,10.184.211c1.945,0,2.559-1.352,2.559-2.8v-.965H11.566v.578c0,.352-.141.563-.4.563-.316,0-.422-.437-.422-1.191A2.652,2.652,0,0,0,8.449-6.1a2.675,2.675,0,0,0,2.539-2.543c0-2-.789-3.609-4.855-3.609ZM5.031-9.973h.875A1.416,1.416,0,0,1,7.5-8.414c0,.93-.664,1.422-1.68,1.422H5.031Zm0,0" fill="#188f0e"/>
        </g>
      </g>
    </g>
    <g id="Group_65" data-name="Group 65">
      <g id="Group_64" data-name="Group 64" transform="translate(194.934 161.501)">
        <g id="Group_63" data-name="Group 63">
          <path id="Path_53" data-name="Path 53" d="M.438,0H7.1c3.383,0,4.77-1.086,4.77-3.559a2.94,2.94,0,0,0-2.316-2.98,2.427,2.427,0,0,0,1.719-2.715c0-1.91-1.383-3-4.293-3H.438v2.258H1.453v7.715H.438ZM5.082-9.937H6.188A1.149,1.149,0,0,1,7.344-8.66c0,.844-.262,1.352-1.191,1.352H5.082Zm0,7.66V-5.328H6.434A1.4,1.4,0,0,1,7.906-3.785,1.426,1.426,0,0,1,6.484-2.277Zm0,0" fill="#188f0e"/>
        </g>
      </g>
    </g>
    <g id="Group_68" data-name="Group 68">
      <g id="Group_67" data-name="Group 67" transform="translate(208.829 161.501)">
        <g id="Group_66" data-name="Group 66">
          <path id="Path_54" data-name="Path 54" d="M.438-12.25v2.313H1.543v7.605H.438V0h10.57V-3.961H7.977v1.629h-2.8V-5.187H8.5V-7.52H5.172V-9.937h2.8v1.559h3.031V-12.25Zm0,0" fill="#188f0e"/>
        </g>
      </g>
    </g>
    <g id="Group_71" data-name="Group 71">
      <g id="Group_70" data-name="Group 70" transform="translate(222.128 161.501)">
        <g id="Group_69" data-name="Group 69">
          <path id="Path_55" data-name="Path 55" d="M.438-12.25v2.293h.98v7.645H.438V0H6.1V-2.312H5.031V-5.031c1.559,0,1.75.387,1.75,1.98C6.781-1,7.887.211,10.184.211c1.945,0,2.559-1.352,2.559-2.8v-.965H11.566v.578c0,.352-.141.563-.4.563-.316,0-.422-.437-.422-1.191A2.652,2.652,0,0,0,8.449-6.1a2.675,2.675,0,0,0,2.539-2.543c0-2-.789-3.609-4.855-3.609ZM5.031-9.973h.875A1.416,1.416,0,0,1,7.5-8.414c0,.93-.664,1.422-1.68,1.422H5.031Zm0,0" fill="#188f0e"/>
        </g>
      </g>
    </g>
    <g id="Group_74" data-name="Group 74">
      <g id="Group_73" data-name="Group 73" transform="translate(236.898 161.501)">
        <g id="Group_72" data-name="Group 72">
          <path id="Path_56" data-name="Path 56" d="M.438,0H3.5l.2-1.348A4.727,4.727,0,0,0,7.359.262c2.086,0,4.648-.98,4.648-3.715,0-4.117-6.941-3.7-6.941-5.5,0-.613.7-.93,1.207-.93A2.05,2.05,0,0,1,8.52-7.852h3.172v-4.4H8.676L8.5-10.777a3.924,3.924,0,0,0-3.664-1.789C3.121-12.566.668-11.391.668-8.8c0,4.469,6.727,3.891,6.727,5.258,0,.734-.875.875-1.488.875C5.172-2.7,3.7-2.945,3.7-4.418H.438Zm0,0" fill="#188f0e"/>
        </g>
      </g>
    </g>
    <g id="Group_77" data-name="Group 77">
      <g id="Group_76" data-name="Group 76" transform="translate(251.195 161.501)">
        <g id="Group_75" data-name="Group 75">
          <path id="Path_57" data-name="Path 57" d="M.438-12.25v2.313H1.4v7.625H.438V0h5.68V-2.312H5.031V-4.961H8.359v2.648H7.328V0h5.7V-2.312H12.008V-9.937h1.016V-12.25h-5.7v2.313H8.359v2.645H5.031V-9.937H6.117V-12.25Zm0,0" fill="#188f0e"/>
        </g>
      </g>
    </g>
    <g id="Group_80" data-name="Group 80">
      <g id="Group_79" data-name="Group 79" transform="translate(266.509 161.501)">
        <g id="Group_78" data-name="Group 78">
          <path id="Path_58" data-name="Path 58" d="M6.539.316c3.961,0,6.168-2.418,6.168-6.379,0-3.945-2-6.523-6.293-6.523-3.629,0-6.152,2.613-6.152,6.4C.262-1.8,2.875.316,6.539.316Zm0-2.754c-1.125,0-1.945-1.453-1.945-3.75,0-2.172.734-3.715,1.8-3.7,1.348,0,1.926,1.7,1.926,3.824C8.324-3.891,7.641-2.437,6.539-2.437Zm0,0" fill="#188f0e"/>
        </g>
      </g>
    </g>
    <g id="Group_83" data-name="Group 83">
      <g id="Group_82" data-name="Group 82" transform="translate(281.332 161.501)">
        <g id="Group_81" data-name="Group 81">
          <path id="Path_59" data-name="Path 59" d="M.438-12.25v2.293h.98v7.645H.438V0H6.082V-2.312H5.012V-5.031H6.344c2.508,0,4.609-1.156,4.609-3.469,0-2-.769-3.75-4.836-3.75ZM5.012-9.973h.879A1.467,1.467,0,0,1,7.52-8.379c0,.93-.7,1.457-1.719,1.457H5.012Zm0,0" fill="#188f0e"/>
        </g>
      </g>
    </g>
    <g id="Group_86" data-name="Group 86">
      <g id="Group_85" data-name="Group 85" transform="translate(100.049 116.697)">
        <g id="Group_84" data-name="Group 84">
          <path id="Path_60" data-name="Path 60" d="M.156-.219,2.539-3.57C3.75-5.27,3.7-6.355,2.457-7.238a1.809,1.809,0,0,0-2.324.094A1.5,1.5,0,0,0-.621-8.98c-.957-.684-2-.375-3.043,1.086L-6-4.605l1.137.809.363-.512L-.625-1.547l-.363.512ZM-3.176-6.113l.395-.555a.706.706,0,0,1,1.055-.125c.426.3.586.617.254,1.082l-.383.539ZM.672-3.371-.859-4.465l.484-.676a.862.862,0,0,1,1.3-.187.877.877,0,0,1,.25,1.25Zm0,0"/>
        </g>
      </g>
    </g>
    <g id="Group_89" data-name="Group 89">
      <g id="Group_88" data-name="Group 88" transform="translate(105.527 109.174)">
        <g id="Group_87" data-name="Group 87">
          <path id="Path_61" data-name="Path 61" d="M6.211-6.148l-1-1.008-.539.531-5.684-3.02L-3.961-6.723l.984.992.316-.312,2.3,4.4-.523.52,1,1.008L2.559-2.535l-1-1.008-.6.594-.359-.68L2.184-5.191l.68.363-.73.723,1,1.008ZM-.02-4.836-1.164-6.988.984-5.832Zm0,0"/>
        </g>
      </g>
    </g>
    <g id="Group_92" data-name="Group 92">
      <g id="Group_91" data-name="Group 91" transform="translate(113.317 101.749)">
        <g id="Group_90" data-name="Group 90">
          <path id="Path_62" data-name="Path 62" d="M-4.074-6.379l.8,1.168.5-.344L-.09-1.672l-.5.344L.223-.152,3.1-2.137,2.289-3.312l-.547.375L.793-4.32c.793-.547,1.023-.418,1.582.395a1.844,1.844,0,0,0,2.871.461,1.5,1.5,0,0,0,.316-2.32l-.336-.488-.6.41.2.293c.121.18.125.336-.008.426-.16.113-.367-.074-.633-.457a1.638,1.638,0,0,0-2.039-.457,1.658,1.658,0,0,0,.4-2.184C1.852-9.258.887-9.8-1.18-8.375Zm3.133-.449L-.5-7.137A.872.872,0,0,1,.859-6.9c.328.473.16.953-.355,1.309l-.4.277Zm0,0"/>
        </g>
      </g>
    </g>
    <g id="Group_95" data-name="Group 95">
      <g id="Group_94" data-name="Group 94" transform="translate(121.53 96.293)">
        <g id="Group_93" data-name="Group 93">
          <path id="Path_63" data-name="Path 63" d="M.246-.113,3.965-1.867C5.852-2.754,6.34-3.727,5.691-5.105A1.808,1.808,0,0,0,3.617-6.16a1.5,1.5,0,0,0,.242-1.969C3.359-9.2,2.3-9.441.676-8.676L-2.977-6.957-2.383-5.7l.57-.266,2.027,4.3-.57.27ZM.227-6.887l.617-.289a.708.708,0,0,1,.98.41c.223.469.207.824-.309,1.066l-.6.281ZM2.238-2.609l-.8-1.7.754-.355a.865.865,0,0,1,1.227.477.879.879,0,0,1-.395,1.215Zm0,0"/>
        </g>
      </g>
    </g>
    <g id="Group_98" data-name="Group 98">
      <g id="Group_97" data-name="Group 97" transform="translate(130.046 92.465)">
        <g id="Group_96" data-name="Group 96">
          <path id="Path_64" data-name="Path 64" d="M-1.852-7.336l.4,1.371L-.8-6.156.512-1.648l-.652.191.4,1.383L6.523-1.9,5.84-4.246l-1.8.523.281.965L2.66-2.273,2.168-3.965l1.977-.574-.4-1.383-1.977.574L1.352-6.781l1.66-.484.27.926,1.8-.523L4.41-9.16Zm0,0"/>
        </g>
      </g>
    </g>
    <g id="Group_101" data-name="Group 101">
      <g id="Group_100" data-name="Group 100" transform="translate(138.682 90.073)">
        <g id="Group_99" data-name="Group 99">
          <path id="Path_65" data-name="Path 65" d="M-.652-7.539-.48-6.133l.6-.074L.7-1.523l-.6.074L.27-.031,3.738-.457,3.563-1.875,2.906-1.8,2.7-3.461c.957-.117,1.1.105,1.223,1.082A1.842,1.842,0,0,0,6.254-.637a1.5,1.5,0,0,0,1.355-1.91l-.07-.59-.719.086.043.355c.027.215-.043.355-.207.375-.191.023-.289-.238-.344-.7A1.64,1.64,0,0,0,4.719-4.371a1.647,1.647,0,0,0,1.363-1.75c-.148-1.223-.754-2.152-3.246-1.844ZM2.332-6.488l.535-.066a.878.878,0,0,1,1.1.836c.066.57-.3.922-.926,1l-.484.059Zm0,0"/>
        </g>
      </g>
    </g>
    <g id="Group_104" data-name="Group 104">
      <g id="Group_103" data-name="Group 103" transform="translate(153.295 89.158)">
        <g id="Group_102" data-name="Group 102">
          <path id="Path_66" data-name="Path 66" d="M1.176-7.477,1-6.066l.6.07L1.039-1.312l-.6-.074L.27.031,3.727.449,3.9-.969l-.656-.078.2-1.664.813.1C5.8-2.43,7.168-2.98,7.34-4.4c.148-1.227-.2-2.355-2.687-2.656ZM3.809-5.742l.535.066a.9.9,0,0,1,.883,1.1c-.07.57-.535.84-1.16.766l-.484-.059Zm0,0"/>
        </g>
      </g>
    </g>
    <g id="Group_107" data-name="Group 107">
      <g id="Group_106" data-name="Group 106" transform="translate(162.032 90.286)">
        <g id="Group_105" data-name="Group 105">
          <path id="Path_67" data-name="Path 67" d="M8.383,2.48l.4-1.359L8.059.906,7.965-5.527,3.98-6.707,3.586-5.371l.426.129L1.262-1.105l-.7-.207L.156.047l3.3.977.4-1.359L3.047-.578l.426-.641L5.6-.59l.008.773L4.625-.109l-.4,1.359ZM4.227-2.348,5.563-4.391l.023,2.445Zm0,0"/>
        </g>
      </g>
    </g>
    <g id="Group_110" data-name="Group 110">
      <g id="Group_109" data-name="Group 109" transform="translate(172.292 93.534)">
        <g id="Group_108" data-name="Group 108">
          <path id="Path_68" data-name="Path 68" d="M3.625-6.641,2.992-5.375l.539.273L1.422-.887l-.543-.27L.242.121,3.367,1.684,4,.406,3.414.113l.75-1.5c.863.43.863.7.422,1.578A1.843,1.843,0,0,0,5.563,2.93,1.506,1.506,0,0,0,7.75,2.086l.266-.531L7.367,1.23l-.16.32c-.1.191-.23.27-.375.2-.176-.09-.113-.359.094-.777a1.638,1.638,0,0,0-.578-2.008,1.65,1.65,0,0,0,2.105-.7C9-2.836,9.016-3.945,6.77-5.066ZM5.531-4.117l.484.242a.878.878,0,0,1,.449,1.3.886.886,0,0,1-1.32.316l-.437-.219Zm0,0"/>
        </g>
      </g>
    </g>
    <g id="Group_113" data-name="Group 113">
      <g id="Group_112" data-name="Group 112" transform="translate(181.029 98.134)">
        <g id="Group_111" data-name="Group 111">
          <path id="Path_69" data-name="Path 69" d="M4.621-5.992l-.832,1.16.484.348L1.543-.668l-.484-.344L.219.156,5.145,3.684,6.781,1.395,5.3.34,4.5,1.457,3.371.645,6.1-3.176l.469.336L7.4-4Zm0,0"/>
        </g>
      </g>
    </g>
    <g id="Group_116" data-name="Group 116">
      <g id="Group_115" data-name="Group 115" transform="translate(187.891 103.16)">
        <g id="Group_114" data-name="Group 114">
          <path id="Path_70" data-name="Path 70" d="M2.734,2.973c1.742,1.719,3.758,1.613,5.477-.129s1.949-3.73.063-5.59A3.7,3.7,0,0,0,2.8-2.605C.9-.68,1.125,1.387,2.734,2.973Zm1.2-1.207C3.434,1.277,3.7.281,4.7-.727c.941-.957,1.934-1.312,2.4-.844.59.586.109,1.586-.812,2.516C5.344,1.9,4.414,2.242,3.93,1.766Zm0,0"/>
        </g>
      </g>
    </g>
    <g id="Group_119" data-name="Group 119">
      <g id="Group_118" data-name="Group 118" transform="translate(194.813 110.213)">
        <g id="Group_117" data-name="Group 117">
          <path id="Path_71" data-name="Path 71" d="M6.3-4.191l-1.148.824.352.492L1.672-.121,1.316-.613.156.219,2.2,3.059l1.16-.836-.383-.535L4.332.711c.563.781.438,1.016-.359,1.59a1.841,1.841,0,0,0-.41,2.879,1.5,1.5,0,0,0,2.328.273l.48-.348-.422-.59-.289.211c-.176.125-.332.129-.426,0-.113-.16.066-.371.445-.641A1.64,1.64,0,0,0,6.1,2.039a1.649,1.649,0,0,0,2.187.355c1-.719,1.527-1.7.063-3.73ZM6.809-1.07l.316.437A.874.874,0,0,1,6.918.73C6.453,1.066,5.969.906,5.6.4L5.316,0Zm0,0"/>
        </g>
      </g>
    </g>
  </g>
</svg>
